<?xml version="1.0" encoding="UTF-8"?>
<svg version="1.1" xmlns="http://www.w3.org/2000/svg" width="500" height="500">
<path d="M0 0 C0.78383057 0.29656494 1.56766113 0.59312988 2.37524414 0.89868164 C7.93587716 3.12256574 7.93587716 3.12256574 10.1875 6.5 C9.50945312 7.04527344 8.83140625 7.59054688 8.1328125 8.15234375 C-3.81678556 17.3679149 -3.81678556 17.3679149 -13.8125 28.5 C-14.47636719 28.29503906 -15.14023437 28.09007812 -15.82421875 27.87890625 C-16.70722656 27.60949219 -17.59023438 27.34007812 -18.5 27.0625 C-19.37011719 26.79566406 -20.24023438 26.52882812 -21.13671875 26.25390625 C-30.54388699 23.60341943 -39.7800184 23.4216977 -48.8125 27.5 C-57.66572776 32.70921965 -64.28748629 39.26429389 -68.8125 48.5 C-68.22590103 48.49777939 -67.63930206 48.49555878 -67.03492737 48.49327087 C-60.95224616 48.4712179 -54.86957623 48.45609336 -48.78686523 48.44506836 C-46.51407409 48.44002675 -44.2412862 48.43319363 -41.96850586 48.42456055 C-38.70946449 48.41248739 -35.45046583 48.40677013 -32.19140625 48.40234375 C-31.16849991 48.39718246 -30.14559357 48.39202118 -29.09169006 48.38670349 C-28.15079025 48.38662796 -27.20989044 48.38655243 -26.24047852 48.38647461 C-25.40774918 48.384254 -24.57501984 48.38203339 -23.71705627 48.37974548 C-21.8125 48.5 -21.8125 48.5 -20.8125 49.5 C-20.71256468 51.5605531 -20.68169094 53.6245259 -20.6796875 55.6875 C-20.67839844 56.94304687 -20.67710937 58.19859375 -20.67578125 59.4921875 C-20.67787598 60.14928711 -20.6799707 60.80638672 -20.68212891 61.48339844 C-20.68747766 63.49161335 -20.68218309 65.49960459 -20.67578125 67.5078125 C-20.67707031 68.76335937 -20.67835938 70.01890625 -20.6796875 71.3125 C-20.68081543 72.47394531 -20.68194336 73.63539063 -20.68310547 74.83203125 C-20.8125 77.5 -20.8125 77.5 -21.8125 78.5 C-23.28500645 78.62232644 -24.76315711 78.6777456 -26.24047852 78.70532227 C-27.18137833 78.72526749 -28.12227814 78.74521271 -29.09169006 78.76576233 C-30.62604958 78.79083107 -30.62604958 78.79083107 -32.19140625 78.81640625 C-33.23320541 78.83718735 -34.27500458 78.85796844 -35.34837341 78.87937927 C-38.69051247 78.94499057 -42.03273285 79.00381331 -45.375 79.0625 C-47.63477418 79.10567422 -49.89454001 79.14928814 -52.15429688 79.19335938 C-57.70694421 79.30068367 -63.25967321 79.40242812 -68.8125 79.5 C-67.89596774 81.24699183 -66.97115366 82.98964003 -66.04296875 84.73046875 C-65.52887451 85.70137451 -65.01478027 86.67228027 -64.48510742 87.67260742 C-58.31490235 98.10278475 -47.82980511 103.62837128 -36.4921875 106.95703125 C-27.84435302 108.70928926 -19.03972574 108.78793334 -10.25 109.0625 C-5.815625 109.206875 -1.38125 109.35125 3.1875 109.5 C3.1875 119.73 3.1875 129.96 3.1875 140.5 C-31.39429027 140.95303655 -31.39429027 140.95303655 -46.8125 137.5 C-47.76125 137.29503906 -48.71 137.09007812 -49.6875 136.87890625 C-62.62251667 133.54150611 -72.5583821 126.85944933 -81.8125 117.5 C-82.658125 116.67628906 -83.50375 115.85257812 -84.375 115.00390625 C-98.92650824 100.05596269 -104.3579426 81.13240315 -104.23217773 60.734375 C-103.71260453 41.22114339 -95.81346409 24.84373533 -81.8125 11.5 C-59.0464816 -9.61979837 -27.76988523 -10.52294767 0 0 Z " fill="#D7AE50" transform="translate(398.8125,186.5)"/>
<path d="M0 0 C3.39259815 3.23838914 6.06731245 6.79123021 8.75 10.625 C5.36227103 15.31659716 1.96814817 19.6549782 -2.25 23.625 C-2.98863281 23.33625 -3.72726562 23.0475 -4.48828125 22.75 C-14.9213187 18.93206508 -23.20086911 18.11257042 -33.6171875 22.37109375 C-43.50872656 27.0820493 -50.14072786 33.35181965 -54.25 43.625 C-39.07 43.625 -23.89 43.625 -8.25 43.625 C-8.25 53.525 -8.25 63.425 -8.25 73.625 C-23.43 73.625 -38.61 73.625 -54.25 73.625 C-48.9350157 85.58371467 -41.72529556 94.6009734 -29.4375 99.9375 C-22.40597707 102.45721878 -15.27208711 103.72384477 -7.80078125 103.578125 C4.2470876 103.45323779 4.2470876 103.45323779 8.515625 106.78125 C10.6875 109.5625 10.6875 109.5625 12.6875 112.5703125 C17.87528804 120.253741 25.51446195 125.93158114 33.55859375 130.37109375 C35.77040665 131.63667653 37.74382438 133.05753249 39.75 134.625 C38.11298566 136.26201434 36.2509174 135.76067138 33.9934082 135.77026367 C32.97757156 135.77664352 31.96173492 135.78302338 30.91511536 135.78959656 C29.24976997 135.79126579 29.24976997 135.79126579 27.55078125 135.79296875 C25.83812325 135.79796135 25.83812325 135.79796135 24.09086609 135.80305481 C21.66043501 135.808134 19.22999692 135.81046283 16.79956055 135.81030273 C13.12341295 135.81246419 9.44757778 135.83053916 5.77148438 135.84960938 C-17.0442652 135.90461547 -17.0442652 135.90461547 -28.25 133.625 C-29.29639648 133.42334229 -30.34279297 133.22168457 -31.42089844 133.01391602 C-44.57684015 130.33345533 -55.43435775 123.56675359 -65.25 114.625 C-65.96800781 113.99980469 -66.68601563 113.37460937 -67.42578125 112.73046875 C-73.36927622 107.24860446 -77.34190392 100.65300472 -81.25 93.625 C-81.59200943 93.05589401 -81.93401886 92.48678802 -82.28639221 91.9004364 C-85.36386778 86.42107696 -85.83763792 81.8263558 -85.82421875 75.61328125 C-85.83838333 74.68202927 -85.85254791 73.75077728 -85.86714172 72.79130554 C-85.90878075 69.83991733 -85.92423149 66.8891395 -85.9375 63.9375 C-85.96663667 60.97543275 -86.00123964 58.01351596 -86.03999329 55.05155945 C-86.0623337 53.21521334 -86.07824184 51.3787745 -86.08683777 49.54231262 C-86.1216053 45.41687211 -86.33640331 41.66615076 -87.25 37.625 C-84.43938114 24.31028862 -73.00371516 9.90510985 -62.3125 2.125 C-61.33277222 1.41162476 -61.33277222 1.41162476 -60.33325195 0.68383789 C-40.26302528 -13.46363083 -19.76283621 -15.23385291 0 0 Z " fill="#DAB153" transform="translate(294.25,191.375)"/>
<path d="M0 0 C1.28003906 0.36544922 1.28003906 0.36544922 2.5859375 0.73828125 C8.14257474 2.63545028 12.82575147 5.68425412 17.625 9 C18.2540625 9.42740479 18.883125 9.85480957 19.53125 10.29516602 C21.2890625 11.5625 21.2890625 11.5625 24 14 C24 18 24 18 22.27734375 20.078125 C21.50519531 20.79484375 20.73304688 21.5115625 19.9375 22.25 C14.47352102 27.47304762 9.48767066 32.91342871 5 39 C1.4739653 38.66943425 -0.72001673 37.60108962 -3.5625 35.625 C-11.82070992 30.24937279 -22.12490945 28.72573753 -31.71875 30.50390625 C-41.13624624 32.76772746 -48.53343056 36.84069903 -54 45 C-58.94856498 54.34377605 -60.48669422 63.42589568 -58.421875 73.9453125 C-55.78236709 82.36774229 -50.73193099 89.35765086 -42.95703125 93.69921875 C-35.44964861 96.95397222 -28.80342441 98.13965495 -20.625 98.0625 C-19.37976563 98.05347656 -18.13453125 98.04445313 -16.8515625 98.03515625 C-15.91054687 98.02355469 -14.96953125 98.01195312 -14 98 C-12.51874956 100.96250087 -12.87009316 103.63912895 -12.8671875 106.94140625 C-12.86623077 107.62428207 -12.86527405 108.3071579 -12.86428833 109.01072693 C-12.86360777 110.45401095 -12.8654534 111.89729803 -12.86962891 113.34057617 C-12.87498718 115.55719828 -12.86967557 117.77361852 -12.86328125 119.99023438 C-12.86394189 121.39062545 -12.86522277 122.7910164 -12.8671875 124.19140625 C-12.86831543 125.47217041 -12.86944336 126.75293457 -12.87060547 128.07250977 C-13 131 -13 131 -14 132 C-33.44819746 133.2866492 -53.75392544 129.27498715 -68.765625 116.15234375 C-82.42774333 102.99180668 -91.49068639 88.03140529 -92.203125 68.7734375 C-92.53416499 50.42761494 -88.8471603 34.61133218 -76.5625 20.5625 C-75.06218104 19.02142535 -73.54198965 17.49937853 -72 16 C-70.98873047 14.95779297 -70.98873047 14.95779297 -69.95703125 13.89453125 C-51.43788496 -4.0686932 -24.04213555 -7.11324165 0 0 Z " fill="#B27708" transform="translate(184,178)"/>
<path d="M0 0 C1.03253906 0.43957031 2.06507813 0.87914062 3.12890625 1.33203125 C5.31413957 2.26292487 7.4977084 3.19773444 9.6796875 4.13623047 C14.02926158 6.0046284 18.3895101 7.8472862 22.75024414 9.68945312 C24.91666284 10.60478171 27.08251658 11.52144862 29.24780273 12.43945312 C37.81477865 16.07100098 46.40030553 19.65676317 54.99804688 23.21484375 C56.37766602 23.7871875 56.37766602 23.7871875 57.78515625 24.37109375 C58.57801025 24.69907959 59.37086426 25.02706543 60.18774414 25.36499023 C64.14558743 27.05031199 68.06903455 28.81540425 72 30.5625 C72 38.4825 72 46.4025 72 54.5625 C70.35 54.2325 68.7 53.9025 67 53.5625 C65.34502644 50.25255287 65.89915665 46.57127 65.9375 42.9375 C65.94201172 42.13570312 65.94652344 41.33390625 65.95117188 40.5078125 C65.96296832 38.52600994 65.98090395 36.54424567 66 34.5625 C65.14245117 34.74425781 64.28490234 34.92601562 63.40136719 35.11328125 C60.211441 35.78739191 57.02078347 36.45789378 53.82958984 37.12597656 C52.45005509 37.41555254 51.07081877 37.7065541 49.69189453 37.99902344 C47.7068278 38.41979461 45.72073512 38.8353833 43.734375 39.25 C42.54038086 39.50136719 41.34638672 39.75273437 40.11621094 40.01171875 C37 40.5625 37 40.5625 33 40.5625 C33.33 42.5425 33.66 44.5225 34 46.5625 C32.93523437 46.59988281 31.87046875 46.63726562 30.7734375 46.67578125 C8.06792629 47.63357544 -8.72390691 53.62101409 -26 68.5625 C-29.28713131 67.16493441 -30.99488612 65.60605249 -33.1875 62.8125 C-39.41298154 55.50087061 -47.04660795 51.68262147 -56 48.5625 C-57.60875 47.9746875 -57.60875 47.9746875 -59.25 47.375 C-64.14737267 46.31390259 -68.98842243 46.11878385 -73.98828125 45.90625 C-77 45.5625 -77 45.5625 -79 43.5625 C-78.6390625 42.86382812 -78.278125 42.16515625 -77.90625 41.4453125 C-77.4421875 40.53523438 -76.978125 39.62515625 -76.5 38.6875 C-76.0359375 37.78257812 -75.571875 36.87765625 -75.09375 35.9453125 C-73.86094411 33.69653141 -73.86094411 33.69653141 -74 31.5625 C-75.59654419 30.90447388 -75.59654419 30.90447388 -77.2253418 30.2331543 C-81.18729193 28.59897834 -85.14705968 26.95957095 -89.10620117 25.31860352 C-90.81752731 24.61015043 -92.52943599 23.90310274 -94.24194336 23.19750977 C-96.70842832 22.18097124 -99.17274947 21.15933736 -101.63671875 20.13671875 C-102.77919319 19.6677845 -102.77919319 19.6677845 -103.94474792 19.18937683 C-107.83261476 17.56980599 -111.44741585 15.85617361 -115 13.5625 C-112.21700458 10.77950458 -109.14362617 10.59858404 -105.40429688 9.8984375 C-104.22826401 9.6687326 -104.22826401 9.6687326 -103.0284729 9.43438721 C-100.4265957 8.92807768 -97.82274436 8.43279539 -95.21875 7.9375 C-93.40697198 7.58711027 -91.59532812 7.23602619 -89.78381348 6.88427734 C-85.00166329 5.95760787 -80.21777993 5.0402089 -75.43347168 4.12475586 C-70.59783984 3.19791469 -65.76381358 2.26278224 -60.9296875 1.328125 C-55.48157962 0.27521582 -50.03331315 -0.77681469 -44.5838623 -1.82275391 C-43.75273674 -1.98239404 -42.92161118 -2.14203417 -42.06529999 -2.30651188 C-40.47057066 -2.61238091 -38.87567184 -2.91736789 -37.28058624 -3.22137356 C-32.50549862 -4.13439868 -27.74756954 -5.10456409 -23.00720215 -6.18580627 C-15.07231747 -7.18080356 -7.07331443 -3.0761797 0 0 Z " fill="#B27605" transform="translate(333,129.4375)"/>
<path d="M0 0 C19.8 0 39.6 0 60 0 C60.04010881 22.42082442 60.04010881 22.42082442 60.04882812 31.94335938 C60.05481686 38.45305186 60.06191797 44.96273035 60.07543945 51.47241211 C60.08626735 56.71785702 60.09227662 61.96328692 60.09487724 67.20874214 C60.09673167 69.21470946 60.10035262 71.22067592 60.10573006 73.22663689 C60.11293919 76.02602824 60.113991 78.82535679 60.11352539 81.62475586 C60.11712067 82.46272705 60.12071594 83.30069824 60.12442017 84.1640625 C60.11405216 89.88594784 60.11405216 89.88594784 59 91 C56.33573315 91.16003488 53.69439572 91.25942889 51.02734375 91.31640625 C50.22970108 91.33718735 49.43205841 91.35796844 48.61024475 91.37937927 C46.05275389 91.44496158 43.4951572 91.50379967 40.9375 91.5625 C39.20767118 91.60567699 37.47785321 91.64929101 35.74804688 91.69335938 C31.4988074 91.80065172 27.2494611 91.90189426 23 92 C23 93.32 23 94.64 23 96 C22.34 96.66 21.68 97.32 21 98 C20.01 98 19.02 98 18 98 C18 95.69 18 93.38 18 91 C-5.1 91 -28.2 91 -52 91 C-52.66 89.35 -53.32 87.7 -54 86 C-54.5259375 85.19433594 -55.051875 84.38867188 -55.59375 83.55859375 C-58.11721436 78.96729053 -57.73595635 74.08291349 -57 69 C-55.3900068 65.53487061 -53.15293189 63.56765747 -49.69921875 61.8671875 C-46.66419294 60.89211408 -44.18322312 60.73375907 -41 60.75 C-39.4840625 60.74226563 -39.4840625 60.74226563 -37.9375 60.734375 C-34.9296024 61.00636574 -32.72693207 61.73678882 -30 63 C-30 63.66 -30 64.32 -30 65 C-35.01506064 67.44829732 -40.01719471 67.4032435 -45.46875 67.56640625 C-47.31648096 67.6451059 -49.15985542 67.81514529 -51 68 C-52.14242352 70.28484705 -52.19812982 71.70836128 -52.25 74.25 C-52.27578125 74.99765625 -52.3015625 75.7453125 -52.328125 76.515625 C-52.04038893 79.73484332 -52.04038893 79.73484332 -49 85 C-16 85 17 85 51 85 C48.03 81.7 45.06 78.4 42 75 C32.49141197 62.14773266 27.76466852 46.9633188 28 31 C26.78098999 31.00785522 26.78098999 31.00785522 25.53735352 31.01586914 C21.87907678 31.03656994 18.22081233 31.04963803 14.5625 31.0625 C13.28310547 31.07087891 12.00371094 31.07925781 10.68554688 31.08789062 C8.86313477 31.09272461 8.86313477 31.09272461 7.00390625 31.09765625 C5.87799072 31.10289307 4.7520752 31.10812988 3.59204102 31.11352539 C1 31 1 31 0 30 C0 20.1 0 10.2 0 0 Z " fill="#B37C12" transform="translate(145,235)"/>
<path d="M0 0 C1.73834815 0.14327953 3.47893079 0.25904668 5.21972656 0.36865234 C7.80099961 0.66889105 9.7358847 0.99545618 12.05566406 2.16943359 C13.66635362 4.2554086 14.6999125 6.33621678 15.80175781 8.72802734 C20.42868485 17.73684168 30.24799315 23.6417409 39.55957031 26.80615234 C44.64139197 28.27782603 49.45772841 28.47197979 54.72338867 28.58349609 C69.24088631 28.95100125 69.24088631 28.95100125 74.36035156 32.38818359 C76.52151487 35.20640388 78.25270988 38.11310995 80.05566406 41.16943359 C85.66962277 47.09621832 91.71960233 51.97243083 98.86425781 55.91552734 C101.07607072 57.18111013 103.04948845 58.60196608 105.05566406 60.16943359 C103.41864972 61.80644793 101.55658146 61.30510497 99.29907227 61.31469727 C98.28323563 61.32107712 97.26739899 61.32745697 96.22077942 61.33403015 C94.55543404 61.33569939 94.55543404 61.33569939 92.85644531 61.33740234 C91.14378731 61.34239494 91.14378731 61.34239494 89.39653015 61.3474884 C86.96609908 61.3525676 84.53566099 61.35489643 82.10522461 61.35473633 C78.42907701 61.35689778 74.75324185 61.37497275 71.07714844 61.39404297 C48.26139886 61.44904906 48.26139886 61.44904906 37.05566406 59.16943359 C36.00926758 58.96777588 34.96287109 58.76611816 33.88476562 58.55834961 C20.72882391 55.87788893 9.87130631 49.11118718 0.05566406 40.16943359 C-0.66234375 39.54423828 -1.38035156 38.91904297 -2.12011719 38.27490234 C-8.0712213 32.78601991 -12.02022975 26.1823595 -15.94433594 19.16943359 C-16.79511719 17.69990234 -16.79511719 17.69990234 -17.66308594 16.20068359 C-19.15627431 12.66801841 -19.24867105 10.11104718 -19.13183594 6.29443359 C-19.09123047 4.56580078 -19.09123047 4.56580078 -19.04980469 2.80224609 C-19.015 1.93341797 -18.98019531 1.06458984 -18.94433594 0.16943359 C-13.07177311 -1.87520216 -6.09881959 -0.50801274 0 0 Z " fill="#B38C42" transform="translate(228.9443359375,265.83056640625)"/>
<path d="M0 0 C0.32871094 0.72445313 0.65742188 1.44890625 0.99609375 2.1953125 C4.02285412 8.34726446 6.63475276 12.16520743 12.59375 15.6015625 C15.15920421 17.09252453 17.39975644 18.81653337 19.75 20.625 C32.10032958 29.30672468 47.0774086 29.1100259 61.5625 29.5625 C68.2140625 29.7790625 68.2140625 29.7790625 75 30 C75 40.23 75 50.46 75 61 C40.41820973 61.45303655 40.41820973 61.45303655 25 58 C24.05125 57.79503906 23.1025 57.59007812 22.125 57.37890625 C9.18998333 54.04150611 -0.7458821 47.35944933 -10 38 C-10.84304688 37.18273437 -11.68609375 36.36546875 -12.5546875 35.5234375 C-19.53450236 28.32062536 -27.17651388 18.90927195 -27.25 8.4375 C-27.1675 7.303125 -27.085 6.16875 -27 5 C-26.34 4.67 -25.68 4.34 -25 4 C-24.67 3.34 -24.34 2.68 -24 2 C-20.9375 1.3671875 -20.9375 1.3671875 -17 0.875 C-16.32316162 0.79008301 -15.64632324 0.70516602 -14.94897461 0.61767578 C-9.92114699 0.02150965 -5.05350461 -0.17731595 0 0 Z " fill="#B48B40" transform="translate(327,266)"/>
<path d="M0 0 C1.5159375 -0.00773437 1.5159375 -0.00773437 3.0625 -0.015625 C6.0703976 0.25636574 8.27306793 0.98678882 11 2.25 C11 2.91 11 3.57 11 4.25 C5.98493936 6.69829732 0.98280529 6.6532435 -4.46875 6.81640625 C-6.31648096 6.8951059 -8.15985542 7.06514529 -10 7.25 C-11.14242352 9.53484705 -11.19812982 10.95836128 -11.25 13.5 C-11.27578125 14.24765625 -11.3015625 14.9953125 -11.328125 15.765625 C-10.90160216 18.99501222 -9.49373792 21.37788214 -8 24.25 C5.00383566 24.2731314 18.00766646 24.29091918 31.01151848 24.30181217 C37.04919026 24.30703924 43.08684801 24.31413373 49.12451172 24.32543945 C54.94702417 24.33627454 60.76952308 24.34227816 66.59204483 24.34487724 C68.81768126 24.34673037 71.04331691 24.35034883 73.2689476 24.35573006 C76.37706882 24.3629487 79.48513352 24.36399059 82.59326172 24.36352539 C83.52114502 24.36712067 84.44902832 24.37071594 85.4050293 24.37442017 C86.24919403 24.3730455 87.09335876 24.37167084 87.96310425 24.37025452 C89.06649045 24.37163721 89.06649045 24.37163721 90.19216728 24.37304783 C92.10169843 24.35975236 92.10169843 24.35975236 94 23.25 C94 24.24 94 25.23 94 26.25 C79.645 26.745 79.645 26.745 65 27.25 C66.14588101 28.62317088 66.14588101 28.62317088 69.23461914 28.36352539 C70.66814126 28.36336631 72.10166912 28.35767407 73.53515625 28.34765625 C74.28840683 28.3462413 75.04165741 28.34482635 75.81773376 28.34336853 C78.2326956 28.33775376 80.64756601 28.32519883 83.0625 28.3125 C84.69596221 28.3074869 86.32942586 28.30292366 87.96289062 28.29882812 C91.97529585 28.28777954 95.98763241 28.27050506 100 28.25 C100.33 27.59 100.66 26.93 101 26.25 C100.67 27.57 100.34 28.89 100 30.25 C88.12 30.58 76.24 30.91 64 31.25 C64 32.57 64 33.89 64 35.25 C63.01 36.24 63.01 36.24 62 37.25 C61.01 37.25 60.02 37.25 59 37.25 C59 34.94 59 32.63 59 30.25 C35.9 30.25 12.8 30.25 -11 30.25 C-11.66 28.6 -12.32 26.95 -13 25.25 C-13.5259375 24.44433594 -14.051875 23.63867188 -14.59375 22.80859375 C-17.11721436 18.21729053 -16.73595635 13.33291349 -16 8.25 C-14.3900068 4.78487061 -12.15293189 2.81765747 -8.69921875 1.1171875 C-5.66419294 0.14211408 -3.18322312 -0.01624093 0 0 Z " fill="#C3A361" transform="translate(104,295.75)"/>
<path d="M0 0 C1.216875 0.28875 2.43375 0.5775 3.6875 0.875 C14.7078804 3.29452494 25.54313446 4.33980226 36.8125 4.625 C43.3403125 4.810625 43.3403125 4.810625 50 5 C50 15.23 50 25.46 50 36 C1.61238142 36.63389893 1.61238142 36.63389893 -20 25 C-16.01178789 23.67059596 -13.88269755 24.56196387 -10 26 C-9.67 26.99 -9.34 27.98 -9 29 C-7.73542969 29.12117188 -6.47085937 29.24234375 -5.16796875 29.3671875 C-3.50776802 29.53602147 -1.84761411 29.70531633 -0.1875 29.875 C0.64587891 29.95363281 1.47925781 30.03226562 2.33789062 30.11328125 C3.14033203 30.19707031 3.94277344 30.28085937 4.76953125 30.3671875 C5.87711792 30.47716064 5.87711792 30.47716064 7.00708008 30.58935547 C9 31 9 31 12 33 C14.75218977 33.24073135 17.41217466 33.37282688 20.16796875 33.4140625 C21.36018791 33.44311172 21.36018791 33.44311172 22.57649231 33.4727478 C25.11338595 33.53249442 27.65032509 33.57890883 30.1875 33.625 C31.90822284 33.66318435 33.62892665 33.70223635 35.34960938 33.7421875 C39.56630689 33.83982449 43.78280351 33.91943013 48 34 C47.505 21.625 47.505 21.625 47 9 C38.75 9 30.5 9 22 9 C22 8.67 22 8.34 22 8 C21.13117188 7.87882812 20.26234375 7.75765625 19.3671875 7.6328125 C17.63855469 7.38144531 17.63855469 7.38144531 15.875 7.125 C14.16957031 6.88136719 14.16957031 6.88136719 12.4296875 6.6328125 C9.13833623 6.02552445 6.16465635 5.06683883 3 4 C2.01 4 1.02 4 0 4 C0 2.68 0 1.36 0 0 Z " fill="#AF8E51" transform="translate(352,291)"/>
<path d="M0 0 C0.66 0.33 1.32 0.66 2 1 C0.9024777 3.99324263 0.32317108 4.84610901 -2.625 6.25 C-3.40875 6.4975 -4.1925 6.745 -5 7 C-4.979375 8.299375 -4.95875 9.59875 -4.9375 10.9375 C-5.52430835 16.71389466 -8.7853877 19.5111586 -12.87109375 23.34765625 C-15 25 -15 25 -17 25 C-17.268125 25.61875 -17.53625 26.2375 -17.8125 26.875 C-19 29 -19 29 -22 31 C-22.72910455 33.51381322 -22.72910455 33.51381322 -23.0625 36.375 C-23.58147062 40.04239237 -24.31886335 42.72143475 -26 46 C-26 46.99 -26 47.98 -26 49 C-26.99 49.495 -26.99 49.495 -28 50 C-28.02712351 52.39591038 -28.0468982 54.79150957 -28.0625 57.1875 C-28.07087891 57.86103516 -28.07925781 58.53457031 -28.08789062 59.22851562 C-28.10236285 62.19532252 -28.02268082 64.89899285 -27.37109375 67.80078125 C-27 70 -27 70 -29 73 C-28.34 73 -27.68 73 -27 73 C-27.33 74.98 -27.66 76.96 -28 79 C-33.91110832 68.36000503 -32.25247137 51.42830257 -29.4375 40 C-23.96040745 22.71292663 -14.77828783 10.36304628 0 0 Z " fill="#E2BA5F" transform="translate(326,191)"/>
<path d="M0 0 C0.928125 0.825 1.85625 1.65 2.8125 2.5 C9.98932161 8.63080712 17.38250254 14.097737 26 18 C25.67 18.66 25.34 19.32 25 20 C17.7083642 20.05116734 10.41677557 20.08592757 3.125 20.10986328 C0.6500475 20.11985332 -1.8248934 20.13344995 -4.29980469 20.15087891 C-43.36050515 20.41884981 -43.36050515 20.41884981 -61 12 C-60.34 11.34 -59.68 10.68 -59 10 C-57.68 10 -56.36 10 -55 10 C-55 10.66 -55 11.32 -55 12 C-54.01 12 -53.02 12 -52 12 C-52 12.66 -52 13.32 -52 14 C-50.80503906 14.12117188 -49.61007812 14.24234375 -48.37890625 14.3671875 C-46.77340894 14.53618722 -45.16794177 14.70547345 -43.5625 14.875 C-42.77939453 14.95363281 -41.99628906 15.03226562 -41.18945312 15.11328125 C-40.40634766 15.19707031 -39.62324219 15.28085937 -38.81640625 15.3671875 C-38.10943604 15.44050293 -37.40246582 15.51381836 -36.67407227 15.58935547 C-34.31677131 15.95135494 -32.08730054 16.46158422 -29.7734375 17.02734375 C-25.06554682 18.09321833 -20.61957777 18.25859583 -15.80859375 18.1953125 C-14.97787857 18.1924826 -14.14716339 18.18965271 -13.29127502 18.18673706 C-10.67319495 18.17566291 -8.05547429 18.1505836 -5.4375 18.125 C-3.64779145 18.11495365 -1.85807746 18.10583072 -0.06835938 18.09765625 C4.28789604 18.07576565 8.64388738 18.04132633 13 18 C13.33 17.34 13.66 16.68 14 16 C7.07 15.505 7.07 15.505 0 15 C0.66 14.67 1.32 14.34 2 14 C2 13.01 2 12.02 2 11 C1.34 11 0.68 11 0 11 C0 10.34 0 9.68 0 9 C-0.66 8.67 -1.32 8.34 -2 8 C-1.2265625 7.13375 -1.2265625 7.13375 -0.4375 6.25 C1.27931704 4.1309313 1.27931704 4.1309313 0.58984375 1.859375 C0.29787109 0.93898438 0.29787109 0.93898438 0 0 Z " fill="#B79352" transform="translate(308,307)"/>
<path d="M0 0 C0.66 0 1.32 0 2 0 C2 0.99 2 1.98 2 3 C-12.355 3.495 -12.355 3.495 -27 4 C-25.85411899 5.37317088 -25.85411899 5.37317088 -22.76538086 5.11352539 C-21.33185874 5.11336631 -19.89833088 5.10767407 -18.46484375 5.09765625 C-17.71159317 5.0962413 -16.95834259 5.09482635 -16.18226624 5.09336853 C-13.7673044 5.08775376 -11.35243399 5.07519883 -8.9375 5.0625 C-7.30403779 5.0574869 -5.67057414 5.05292366 -4.03710938 5.04882812 C-0.02470415 5.03777954 3.98763241 5.02050506 8 5 C8.33 4.34 8.66 3.68 9 3 C8.67 4.32 8.34 5.64 8 7 C-3.88 7.33 -15.76 7.66 -28 8 C-28 9.32 -28 10.64 -28 12 C-28.66 12.66 -29.32 13.32 -30 14 C-30.99 14 -31.98 14 -33 14 C-33 11.69 -33 9.38 -33 7 C-56.1 7 -79.2 7 -103 7 C-102.67 5.68 -102.34 4.36 -102 3 C-102 3.99 -102 4.98 -102 6 C-80.22 5.67 -58.44 5.34 -36 5 C-36 4.34 -36 3.68 -36 3 C-57.12 3 -78.24 3 -100 3 C-100 2.67 -100 2.34 -100 2 C-67 1.67 -34 1.34 0 1 C0 0.67 0 0.34 0 0 Z " fill="#ECD3A4" transform="translate(196,319)"/>
<path d="M0 0 C6.84811462 2.58662506 6.84811462 2.58662506 9.26171875 6.20703125 C8.24464844 7.02494141 8.24464844 7.02494141 7.20703125 7.859375 C-4.74256681 17.07494615 -4.74256681 17.07494615 -14.73828125 28.20703125 C-17.04828125 27.54703125 -19.35828125 26.88703125 -21.73828125 26.20703125 C-21.73828125 25.54703125 -21.73828125 24.88703125 -21.73828125 24.20703125 C-22.72828125 23.87703125 -23.71828125 23.54703125 -24.73828125 23.20703125 C-24.40828125 22.54703125 -24.07828125 21.88703125 -23.73828125 21.20703125 C-22.97515625 21.39265625 -22.21203125 21.57828125 -21.42578125 21.76953125 C-18.6486075 22.43522298 -18.6486075 22.43522298 -15.73828125 21.20703125 C-15.40828125 20.21703125 -15.07828125 19.22703125 -14.73828125 18.20703125 C-13.08828125 17.87703125 -11.43828125 17.54703125 -9.73828125 17.20703125 C-9.40828125 16.21703125 -9.07828125 15.22703125 -8.73828125 14.20703125 C-7.91328125 13.93890625 -7.08828125 13.67078125 -6.23828125 13.39453125 C-5.41328125 13.00265625 -4.58828125 12.61078125 -3.73828125 12.20703125 C-2.83997286 9.1543066 -2.83997286 9.1543066 -2.73828125 6.20703125 C-1.74828125 6.53703125 -0.75828125 6.86703125 0.26171875 7.20703125 C-0.06828125 5.88703125 -0.39828125 4.56703125 -0.73828125 3.20703125 C-1.72828125 3.39265625 -2.71828125 3.57828125 -3.73828125 3.76953125 C-7.90915803 4.38364808 -11.58862394 3.8622403 -15.73828125 3.20703125 C-15.73828125 2.54703125 -15.73828125 1.88703125 -15.73828125 1.20703125 C-10.54352604 -1.70482705 -5.67458566 -1.6432823 0 0 Z " fill="#BA9E63" transform="translate(399.73828125,186.79296875)"/>
<path d="M0 0 C0.06058594 0.82242188 0.12117188 1.64484375 0.18359375 2.4921875 C1.11822235 15.80177155 1.11822235 15.80177155 3 29 C-4.625 30 -4.625 30 -8 30 C-8.33 29.34 -8.66 28.68 -9 28 C-9.66 28 -10.32 28 -11 28 C-10.7834375 27.46632812 -10.566875 26.93265625 -10.34375 26.3828125 C-8.72175487 22.04247368 -7.83048093 18.46721102 -8 13.8125 C-8.17199104 8.53810818 -6.83636313 5.20363575 -3.4375 1.125 C-2 0 -2 0 0 0 Z " fill="#AD7D27" transform="translate(404,202)"/>
<path d="M0 0 C3.46528304 0.60961887 6.56534181 1.50164193 9.828125 2.8125 C10.70984375 3.16570312 11.5915625 3.51890625 12.5 3.8828125 C13.4075 4.25148437 14.315 4.62015625 15.25 5 C16.17296875 5.36867187 17.0959375 5.73734375 18.046875 6.1171875 C24.86414717 8.86414717 24.86414717 8.86414717 26 10 C26.08726223 11.78071246 26.10699041 13.5648314 26.09765625 15.34765625 C26.09443359 16.42724609 26.09121094 17.50683594 26.08789062 18.61914062 C26.07951172 19.75544922 26.07113281 20.89175781 26.0625 22.0625 C26.05798828 23.20267578 26.05347656 24.34285156 26.04882812 25.51757812 C26.03699747 28.34510351 26.0205141 31.1725264 26 34 C23.5625 33.625 23.5625 33.625 21 33 C19.34502644 29.69005287 19.89915665 26.00877 19.9375 22.375 C19.94201172 21.57320312 19.94652344 20.77140625 19.95117188 19.9453125 C19.96296832 17.96350994 19.98090395 15.98174567 20 14 C18.35 14 16.7 14 15 14 C15.66 13.34 16.32 12.68 17 12 C16.67 11.34 16.34 10.68 16 10 C12.42464981 8.9238946 12.42464981 8.9238946 9 10 C8.67 8.35 8.34 6.7 8 5 C7.05125 4.9175 6.1025 4.835 5.125 4.75 C2 4 2 4 0.625 1.9375 C0.41875 1.298125 0.2125 0.65875 0 0 Z " fill="#D4B36C" transform="translate(379,150)"/>
<path d="M0 0 C21.45 0.33 42.9 0.66 65 1 C65 1.66 65 2.32 65 3 C65.99 3.495 65.99 3.495 67 4 C44.56 4 22.12 4 -1 4 C-0.67 2.68 -0.34 1.36 0 0 Z " fill="#A4731C" transform="translate(95,321)"/>
<path d="M0 0 C0 0.66 0 1.32 0 2 C-1.24716797 2.16435547 -1.24716797 2.16435547 -2.51953125 2.33203125 C-3.60621094 2.49058594 -4.69289062 2.64914063 -5.8125 2.8125 C-6.89144531 2.96332031 -7.97039062 3.11414063 -9.08203125 3.26953125 C-12.13313362 4.03332796 -13.0216784 4.67547213 -15 7 C-17.1875 7.6875 -17.1875 7.6875 -19 8 C-18.34 8.66 -17.68 9.32 -17 10 C-16.375 12.625 -16.375 12.625 -16 15 C-20.7969347 16.59588543 -24.24205782 15.12993481 -28.6875 13.25 C-29.70166992 12.85167969 -29.70166992 12.85167969 -30.73632812 12.4453125 C-34.25921581 11.00110382 -35.84026875 10.23959687 -38 7 C-30.59296498 5.0127467 -23.13700524 3.34786049 -15.625 1.8125 C-14.34157715 1.54421387 -14.34157715 1.54421387 -13.03222656 1.27050781 C-8.61522269 0.38295474 -4.53241249 -0.2140716 0 0 Z " fill="#B07917" transform="translate(256,135)"/>
<path d="M0 0 C1 2 1 2 0.5 4.3125 C-0.16840854 6.94235808 -0.16840854 6.94235808 0.5 9.3125 C1.19958071 13.0727463 0.54967462 16.21335263 0 20 C0 20.99 0 21.98 0 23 C-0.66 23 -1.32 23 -2 23 C-2 24.32 -2 25.64 -2 27 C-2.66 27 -3.32 27 -4 27 C-3.99214478 27.98842896 -3.99214478 27.98842896 -3.98413086 28.99682617 C-3.81727622 53.1865254 -3.81727622 53.1865254 -5 64 C-5.33 64 -5.66 64 -6 64 C-6.02505615 62.72358643 -6.0501123 61.44717285 -6.07592773 60.13208008 C-6.17021694 55.38897956 -6.27038497 50.64601814 -6.37231445 45.90307617 C-6.41558198 43.85167702 -6.45726275 41.80024375 -6.49731445 39.7487793 C-6.55521544 36.79725878 -6.6188526 33.84590868 -6.68359375 30.89453125 C-6.70030624 29.97976517 -6.71701874 29.06499908 -6.73423767 28.12251282 C-6.8311799 23.94004675 -7.11285836 20.10032538 -8 16 C-6.47970637 10.11469153 -3.58456684 4.86476928 0 0 Z " fill="#E9CB87" transform="translate(215,213)"/>
<path d="M0 0 C0.66 0.99 1.32 1.98 2 3 C1.0821875 3.10957031 0.164375 3.21914062 -0.78125 3.33203125 C-13.95740217 5.03441225 -22.84460332 7.85815974 -31.8984375 18.16015625 C-34.34950998 21.35850692 -36.18700475 24.3740095 -38 28 C-22.49 28 -6.98 28 9 28 C9 28.33 9 28.66 9 29 C-7.5 29 -24 29 -41 29 C-40.67 25.04 -40.34 21.08 -40 17 C-36.535 16.505 -36.535 16.505 -33 16 C-32.773125 15.195625 -32.54625 14.39125 -32.3125 13.5625 C-31.879375 12.716875 -31.44625 11.87125 -31 11 C-28.375 10.1875 -28.375 10.1875 -26 10 C-26 9.01 -26 8.02 -26 7 C-23.09399739 5.74335022 -21.20395416 5 -18 5 C-18 4.34 -18 3.68 -18 3 C-11.87371092 0.89094966 -6.50636505 -0.69711054 0 0 Z " fill="#F0DEB5" transform="translate(368,207)"/>
<path d="M0 0 C0 0.33 0 0.66 0 1 C-3.47852168 1.34029508 -6.95789909 1.6709387 -10.4375 2 C-11.41138672 2.09539062 -12.38527344 2.19078125 -13.38867188 2.2890625 C-17.95893131 2.71704666 -22.45077671 3.0500742 -27.04296875 2.98828125 C-31.23529313 3.00069682 -32.84721591 3.31086063 -36 6 C-37.80796103 8.56610666 -37.80796103 8.56610666 -39 11 C-39.7425 10.814375 -40.485 10.62875 -41.25 10.4375 C-43.88908433 9.83345638 -43.88908433 9.83345638 -46 10.5 C-48.57433043 11.14358261 -50.4556383 10.63609042 -53 10 C-47.9114097 3.8900439 -36.64767067 0.50530316 -28.96875 -0.76171875 C-19.34522508 -1.53413325 -9.5331856 -1.59524525 0 0 Z " fill="#EAD394" transform="translate(381,181)"/>
<path d="M0 0 C2.31 0 4.62 0 7 0 C6.319375 0.53625 5.63875 1.0725 4.9375 1.625 C3.968125 2.40875 2.99875 3.1925 2 4 C1.43410156 4.43570313 0.86820313 4.87140625 0.28515625 5.3203125 C-5.06238985 9.60302995 -8.8189057 14.45671711 -11 21 C4.18 21 19.36 21 35 21 C35 21.33 35 21.66 35 22 C34.16976318 22.02505615 33.33952637 22.0501123 32.48413086 22.07592773 C9.86145968 21.76717864 9.86145968 21.76717864 -12.3046875 24.59375 C-12.86414063 24.7278125 -13.42359375 24.861875 -14 25 C-15 24 -15 24 -15.4375 20.875 C-14.87417368 15.88553832 -12.78290112 13.22428619 -9 10 C-8.34 10 -7.68 10 -7 10 C-7 8.68 -7 7.36 -7 6 C-6.01 6 -5.02 6 -4 6 C-4 5.01 -4 4.02 -4 3 C-2.68 2.67 -1.36 2.34 0 2 C0 1.34 0 0.68 0 0 Z " fill="#EDD7A0" transform="translate(251,214)"/>
<path d="M0 0 C2.57359154 2.54168751 4.98745736 4.98118604 7 8 C7 8.66 7 9.32 7 10 C7.66 10 8.32 10 9 10 C9.268125 9.2575 9.53625 8.515 9.8125 7.75 C10.95276751 5.10938051 12.09380306 3.14447156 14 1 C14.66 1 15.32 1 16 1 C16 5.95 16 10.9 16 16 C15.01 16 14.02 16 13 16 C12.34 15.01 11.68 14.02 11 13 C10.01 14.485 10.01 14.485 9 16 C8.01 15.67 7.02 15.34 6 15 C4.8125 12.4375 4.8125 12.4375 4 10 C3.22227595 12.33317216 2.57584432 14.61435923 2 17 C0.48046875 15.94921875 0.48046875 15.94921875 -1 14 C-1.07421875 10.64453125 -1.07421875 10.64453125 -0.6875 6.8125 C-0.56761719 5.54019531 -0.44773437 4.26789063 -0.32421875 2.95703125 C-0.21722656 1.98121094 -0.11023438 1.00539063 0 0 Z " fill="#AD8A53" transform="translate(384,358)"/>
<path d="M0 0 C0.33 1.32 0.66 2.64 1 4 C-2.33333333 4 -5.66666667 4 -9 4 C-8.67 6.31 -8.34 8.62 -8 11 C-6.02 11 -4.04 11 -2 11 C-1.67 10.34 -1.34 9.68 -1 9 C-1.99 9.33 -2.98 9.66 -4 10 C-4.66 9.67 -5.32 9.34 -6 9 C-5.67 8.01 -5.34 7.02 -5 6 C-2.69 6 -0.38 6 2 6 C3.13869156 8.7949702 3.06846818 9.82681578 1.9375 12.6875 C0 15 0 15 -2.8125 16 C-6.75115325 16 -8.75319346 15.21373173 -12 13 C-13.5625 10.75 -13.5625 10.75 -14 8 C-12.88061852 4.11508781 -12.13787227 1.73807931 -8.6875 -0.5 C-5.52259901 -1.08881879 -3.1186709 -0.7252723 0 0 Z " fill="#C2A26B" transform="translate(108,359)"/>
<path d="M0 0 C9.9 0 19.8 0 30 0 C30 9.24 30 18.48 30 28 C21.09 28 12.18 28 3 28 C3 27.67 3 27.34 3 27 C3.62044189 26.9906543 4.24088379 26.98130859 4.88012695 26.97167969 C7.69172677 26.91799005 10.5016598 26.83434354 13.3125 26.75 C14.28896484 26.73582031 15.26542969 26.72164063 16.27148438 26.70703125 C17.20927734 26.67480469 18.14707031 26.64257812 19.11328125 26.609375 C19.97735596 26.58842773 20.84143066 26.56748047 21.73168945 26.54589844 C24.13083904 26.17541832 24.13083904 26.17541832 25.78710938 24.23242188 C27.11933621 21.78035219 27.35220389 20.4361817 27.29296875 17.671875 C27.28330078 16.87265625 27.27363281 16.0734375 27.26367188 15.25 C27.23853516 14.425 27.21339844 13.6 27.1875 12.75 C27.17396484 11.90953125 27.16042969 11.0690625 27.14648438 10.203125 C27.11123464 8.13514062 27.0574302 6.06748729 27 4 C26.34 4 25.68 4 25 4 C24.34 3.34 23.68 2.68 23 2 C20.99548879 2.30503431 18.99551782 2.64080679 17 3 C15.65835921 2.7018576 14.32148827 2.37756808 13 2 C12.01 2.495 12.01 2.495 11 3 C8.90625 2.94921875 8.90625 2.94921875 6.5 2.6875 C5.7059375 2.60886719 4.911875 2.53023437 4.09375 2.44921875 C2 2 2 2 0 0 Z " fill="#B69760" transform="translate(256,236)"/>
<path d="M0 0 C1.60875 -0.04125 3.2175 -0.0825 4.875 -0.125 C5.77992188 -0.14820313 6.68484375 -0.17140625 7.6171875 -0.1953125 C10 0 10 0 12 2 C11.625 5.625 11.625 5.625 11 9 C10.34 9 9.68 9 9 9 C9.66 10.98 10.32 12.96 11 15 C9.68 15 8.36 15 7 15 C6.34 14.01 5.68 13.02 5 12 C4.67 12.99 4.34 13.98 4 15 C2.68 15 1.36 15 0 15 C0 10.05 0 5.1 0 0 Z M4 3 C4 4.32 4 5.64 4 7 C5.32 6.67 6.64 6.34 8 6 C8 5.01 8 4.02 8 3 C6.68 3 5.36 3 4 3 Z " fill="#D7BF92" transform="translate(157,359)"/>
<path d="M0 0 C3.90432869 1.95216435 6.03839944 3.87386607 9 7 C9.33 4.69 9.66 2.38 10 0 C11.32 0 12.64 0 14 0 C14 4.95 14 9.9 14 15 C9.22262802 13.08905121 7.37277189 11.66186662 4 8 C3.67 10.31 3.34 12.62 3 15 C2.01 15 1.02 15 0 15 C0 10.05 0 5.1 0 0 Z " fill="#C9AD7A" transform="translate(281,359)"/>
<path d="M0 0 C1.60875 -0.04125 3.2175 -0.0825 4.875 -0.125 C5.77992188 -0.14820313 6.68484375 -0.17140625 7.6171875 -0.1953125 C10 0 10 0 12 2 C11.74438677 4.3431213 11.40729228 6.67843403 11 9 C10.84188612 12.05270463 10.84188612 12.05270463 12 15 C9.625 14.6875 9.625 14.6875 7 14 C6.34 13.01 5.68 12.02 5 11 C4.67 12.32 4.34 13.64 4 15 C2.68 15 1.36 15 0 15 C0 10.05 0 5.1 0 0 Z M4 3 C4 4.32 4 5.64 4 7 C5.32 7 6.64 7 8 7 C8.33 6.01 8.66 5.02 9 4 C7.35 3.67 5.7 3.34 4 3 Z " fill="#B49D73" transform="translate(248,359)"/>
<path d="M0 0 C4.03744506 2.01872253 6.62010675 4.08100128 10 7 C10 5.02 10 3.04 10 1 C11.32 0.67 12.64 0.34 14 0 C14 4.95 14 9.9 14 15 C10.09567131 13.04783565 7.96160056 11.12613393 5 8 C4.67 10.31 4.34 12.62 4 15 C2.68 15 1.36 15 0 15 C0 10.05 0 5.1 0 0 Z " fill="#BEA97A" transform="translate(218,359)"/>
<path d="M0 0 C0.84044861 -0.00095673 1.68089722 -0.00191345 2.54681396 -0.00289917 C4.32873611 -0.00357874 6.11066076 -0.00173999 7.89257812 0.00244141 C10.55865394 0.00771222 13.22455497 0.00253114 15.890625 -0.00390625 C26.74901598 -0.00769388 37.52889819 0.35617426 48.359375 1.1328125 C48.359375 1.4628125 48.359375 1.7928125 48.359375 2.1328125 C34.61742726 2.80419664 20.88113148 3.25091751 7.12304688 3.31005859 C5.70082574 3.31687746 4.27861675 3.32711421 2.85644531 3.34082031 C0.84967502 3.3586959 -1.15721358 3.36129033 -3.1640625 3.36328125 C-4.31825684 3.36739014 -5.47245117 3.37149902 -6.66162109 3.37573242 C-9.54978783 3.14021973 -11.20175879 2.63965408 -13.640625 1.1328125 C-9.1045329 -0.00516576 -4.64508956 -0.01181523 0 0 Z " fill="#D0CCC7" transform="translate(115.640625,314.8671875)"/>
<path d="M0 0 C1.216875 0.28875 2.43375 0.5775 3.6875 0.875 C14.7078804 3.29452494 25.54313446 4.33980226 36.8125 4.625 C43.3403125 4.810625 43.3403125 4.810625 50 5 C50 15.23 50 25.46 50 36 C39.77 36 29.54 36 19 36 C19 35.67 19 35.34 19 35 C28.9 35 38.8 35 49 35 C49 25.43 49 15.86 49 6 C44.813125 6.04125 40.62625 6.0825 36.3125 6.125 C24.08930145 6.18385164 12.12818548 5.47008309 0 4 C0 2.68 0 1.36 0 0 Z " fill="#DFD0AF" transform="translate(352,291)"/>
<path d="M0 0 C1.32 0 2.64 0 4 0 C4 0.66 4 1.32 4 2 C4.99 2 5.98 2 7 2 C7 2.66 7 3.32 7 4 C8.19496094 4.12117188 9.38992188 4.24234375 10.62109375 4.3671875 C12.22659106 4.53618722 13.83205823 4.70547345 15.4375 4.875 C16.6121582 4.99294922 16.6121582 4.99294922 17.81054688 5.11328125 C18.59365234 5.19707031 19.37675781 5.28085937 20.18359375 5.3671875 C21.24404907 5.47716064 21.24404907 5.47716064 22.32592773 5.58935547 C25 6 25 6 26.88209534 6.47854614 C33.31985295 8.10912375 39.41506121 8.25923139 46.03515625 8.1953125 C47.15442001 8.1924826 48.27368378 8.18965271 49.42686462 8.18673706 C52.97218905 8.17561732 56.51725301 8.1505279 60.0625 8.125 C62.47851195 8.1149596 64.8945279 8.10583561 67.31054688 8.09765625 C73.20711886 8.0757049 79.10354081 8.04230979 85 8 C84.67 8.66 84.34 9.32 84 10 C76.7083642 10.05116734 69.41677557 10.08592757 62.125 10.10986328 C59.6500475 10.11985332 57.1751066 10.13344995 54.70019531 10.15087891 C15.63949485 10.41884981 15.63949485 10.41884981 -2 2 C-1.34 1.34 -0.68 0.68 0 0 Z " fill="#EEE1CC" transform="translate(249,317)"/>
<path d="M0 0 C3.85121373 1.09501313 7.08326497 1.39967635 11.07397461 1.50244141 C12.05793968 1.53149063 12.05793968 1.53149063 13.06178284 1.56112671 C15.12952214 1.620268 17.19731915 1.66704119 19.26538086 1.71337891 C20.6788148 1.75161924 22.09222695 1.79067436 23.50561523 1.83056641 C26.94616938 1.92591342 30.38688925 2.01018178 33.82788086 2.08837891 C33.82788086 2.41837891 33.82788086 2.74837891 33.82788086 3.08837891 C18.31788086 3.41837891 2.80788086 3.74837891 -13.17211914 4.08837891 C-8.02607211 14.14929667 -8.02607211 14.14929667 -4.17211914 19.08837891 C-9.88911466 16.43405956 -12.78332992 13.80131181 -15.48852539 8.09619141 C-16.38400491 5.46604012 -16.14005591 3.66954364 -15.17211914 1.08837891 C-14.12411133 0.9975 -14.12411133 0.9975 -13.05493164 0.90478516 C-12.14485352 0.82099609 -11.23477539 0.73720703 -10.29711914 0.65087891 C-9.39219727 0.56966797 -8.48727539 0.48845703 -7.55493164 0.40478516 C-1.42420274 -0.40929524 -1.42420274 -0.40929524 0 0 Z " fill="#E8DBBC" transform="translate(343.172119140625,261.91162109375)"/>
<path d="M0 0 C1.23556641 0.01740234 1.23556641 0.01740234 2.49609375 0.03515625 C3.32238281 0.04417969 4.14867187 0.05320312 5 0.0625 C5.63808594 0.07410156 6.27617187 0.08570313 6.93359375 0.09765625 C6.93359375 1.08765625 6.93359375 2.07765625 6.93359375 3.09765625 C4.95359375 3.09765625 2.97359375 3.09765625 0.93359375 3.09765625 C0.93359375 3.75765625 0.93359375 4.41765625 0.93359375 5.09765625 C2.58359375 5.09765625 4.23359375 5.09765625 5.93359375 5.09765625 C5.93359375 6.41765625 5.93359375 7.73765625 5.93359375 9.09765625 C4.28359375 9.09765625 2.63359375 9.09765625 0.93359375 9.09765625 C0.93359375 10.08765625 0.93359375 11.07765625 0.93359375 12.09765625 C2.91359375 12.09765625 4.89359375 12.09765625 6.93359375 12.09765625 C6.93359375 13.08765625 6.93359375 14.07765625 6.93359375 15.09765625 C3.63359375 15.09765625 0.33359375 15.09765625 -3.06640625 15.09765625 C-3.09326037 12.78521833 -3.11273466 10.47269355 -3.12890625 8.16015625 C-3.14050781 6.87238281 -3.15210938 5.58460938 -3.1640625 4.2578125 C-3.03692125 0.1435218 -3.03692125 0.1435218 0 0 Z " fill="#C5AD83" transform="translate(339.06640625,358.90234375)"/>
<path d="M0 0 C0.66 0.99 1.32 1.98 2 3 C-1.08399675 3.91377681 -3.79865843 4 -7 4 C-8.28322547 5.0595877 -8.28322547 5.0595877 -8.125 7.5 C-8.28322547 9.9404123 -8.28322547 9.9404123 -7 11 C-3.36805359 11.19149081 -3.36805359 11.19149081 0 10 C0.66 10.33 1.32 10.66 2 11 C1.3125 12.9375 1.3125 12.9375 0 15 C-2.94045916 16.11260617 -4.58327614 16.10914196 -7.625 15.3125 C-10.39783241 13.78014525 -11.60857119 12.86015922 -13 10 C-12.87655181 6.48172645 -12.73585873 4.00344373 -10.625 1.125 C-6.95265204 -1.41739474 -4.1615652 -1.06252729 0 0 Z " fill="#BE9F6A" transform="translate(311,359)"/>
<path d="M0 0 C4.75 0.75 4.75 0.75 7 3 C7.66 2.01 8.32 1.02 9 0 C10.32 0 11.64 0 13 0 C12.690625 0.763125 12.38125 1.52625 12.0625 2.3125 C10.27154063 6.02692609 10.27154063 6.02692609 10.77734375 9.82421875 C11.16019531 10.43910156 11.54304688 11.05398438 11.9375 11.6875 C12.618125 12.780625 13.29875 13.87375 14 15 C9.44615385 15.36923077 9.44615385 15.36923077 7.1875 13.5 C6.795625 13.005 6.40375 12.51 6 12 C5.01 13.485 5.01 13.485 4 15 C2.68 15 1.36 15 0 15 C0.309375 14.2575 0.61875 13.515 0.9375 12.75 C1.288125 11.8425 1.63875 10.935 2 10 C2.268125 9.360625 2.53625 8.72125 2.8125 8.0625 C3.10422951 4.85347542 1.55170268 2.73099672 0 0 Z " fill="#C29D5C" transform="translate(349,359)"/>
<path d="M0 0 C3.43835989 2.29223992 4.04544432 3.72438311 5.6875 7.4375 C6.34298828 8.88962891 6.34298828 8.88962891 7.01171875 10.37109375 C8 13 8 13 8 16 C7.33613281 15.91621094 6.67226563 15.83242188 5.98828125 15.74609375 C-0.54720848 14.94574958 -0.54720848 14.94574958 -7 16 C-5.35433477 10.31497465 -2.70967216 5.23318364 0 0 Z M0 8 C-0.33 8.99 -0.66 9.98 -1 11 C0.32 10.67 1.64 10.34 3 10 C2.01 9.34 1.02 8.68 0 8 Z " fill="#B88A3E" transform="translate(269,358)"/>
<path d="M0 0 C1.04185411 3.23718956 0.9390928 5.497546 0.25 8.8125 C0.01023437 10.02873047 0.01023437 10.02873047 -0.234375 11.26953125 C-1 14 -1 14 -2.5625 17.25390625 C-4.45219961 21.52427956 -4.37218391 25.52019388 -4.25 30.125 C-4.24484375 30.91003906 -4.2396875 31.69507813 -4.234375 32.50390625 C-4.19052935 35.75396538 -4.07024828 38.6855961 -3.359375 41.8671875 C-3 44 -3 44 -5 47 C-4.34 47 -3.68 47 -3 47 C-3.33 48.98 -3.66 50.96 -4 53 C-9.94324709 42.30215523 -8.38642473 24.98362614 -5.1875 13.5625 C-3.77145031 8.88031273 -1.97132459 4.46795917 0 0 Z " fill="#E4CD99" transform="translate(302,217)"/>
<path d="M0 0 C2.86562595 2.47906057 4.1617794 5.12161059 5.6875 8.5625 C6.12449219 9.53316406 6.56148437 10.50382812 7.01171875 11.50390625 C8 14 8 14 8 16 C6.68 16 5.36 16 4 16 C4 15.34 4 14.68 4 14 C2.02 14 0.04 14 -2 14 C-2 14.66 -2 15.32 -2 16 C-3.32 16 -4.64 16 -6 16 C-5.37183502 12.05050296 -4.1354471 8.80107972 -2.4375 5.1875 C-1.98246094 4.21167969 -1.52742187 3.23585938 -1.05859375 2.23046875 C-0.70925781 1.49441406 -0.35992187 0.75835937 0 0 Z M0 9 C0 9.66 0 10.32 0 11 C0.66 11 1.32 11 2 11 C2 10.34 2 9.68 2 9 C1.34 9 0.68 9 0 9 Z " fill="#D6BB82" transform="translate(177,358)"/>
<path d="M0 0 C2.9178516 2.9178516 4.04674235 4.8621727 5.6875 8.5625 C6.12449219 9.53316406 6.56148438 10.50382812 7.01171875 11.50390625 C8 14 8 14 8 16 C6.68 16 5.36 16 4 16 C4 15.34 4 14.68 4 14 C2.9275 14.350625 1.855 14.70125 0.75 15.0625 C-3 16 -3 16 -7 15 C-3.535 7.575 -3.535 7.575 0 0 Z M0 7 C-0.33 8.32 -0.66 9.64 -1 11 C0.32 10.67 1.64 10.34 3 10 C2.01 9.01 1.02 8.02 0 7 Z " fill="#BA9150" transform="translate(372,358)"/>
<path d="M0 0 C3 1 3 1 4.60546875 3.94140625 C5.12753906 5.13636719 5.64960938 6.33132813 6.1875 7.5625 C6.71730469 8.76003906 7.24710938 9.95757812 7.79296875 11.19140625 C8.19128906 12.11824219 8.58960938 13.04507812 9 14 C4.84228506 15.31538327 2.1120703 14.34433068 -2 13 C-2 13.66 -2 14.32 -2 15 C-3.32 15 -4.64 15 -6 15 C-4.36041242 9.76727367 -2.61047965 4.84803364 0 0 Z M1 7 C0.67 7.99 0.34 8.98 0 10 C0.99 10 1.98 10 3 10 C2.67 9.01 2.34 8.02 2 7 C1.67 7 1.34 7 1 7 Z " fill="#CCA76E" transform="translate(146,359)"/>
<path d="M0 0 C1.02351563 0.44601563 2.04703125 0.89203125 3.1015625 1.3515625 C3.85179687 1.68929687 4.60203125 2.02703125 5.375 2.375 C4.715 2.705 4.055 3.035 3.375 3.375 C2.24149466 5.39169827 2.24149466 5.39169827 1.375 7.375 C0.88 5.89 0.88 5.89 0.375 4.375 C-0.945 4.375 -2.265 4.375 -3.625 4.375 C-2.965 5.035 -2.305 5.695 -1.625 6.375 C-2.945 6.375 -4.265 6.375 -5.625 6.375 C-5.625 5.715 -5.625 5.055 -5.625 4.375 C-6.285 4.375 -6.945 4.375 -7.625 4.375 C-7.955 2.725 -8.285 1.075 -8.625 -0.625 C-13.72414442 -1.86115622 -18.60060615 -2.29979795 -23.625 -0.625 C-25.95833333 -0.29166667 -28.29166667 0.04166667 -30.625 0.375 C-31.615 0.705 -32.605 1.035 -33.625 1.375 C-34.615 0.715 -35.605 0.055 -36.625 -0.625 C-33.50696918 -1.36661024 -30.38021423 -2.06179687 -27.25 -2.75 C-25.94482422 -3.06130859 -25.94482422 -3.06130859 -24.61328125 -3.37890625 C-15.5929865 -5.3165992 -8.3864002 -3.70561869 0 0 Z " fill="#C8A35C" transform="translate(328.625,127.625)"/>
<path d="M0 0 C0.99 0 1.98 0 3 0 C3.33 3.63 3.66 7.26 4 11 C5.32 11 6.64 11 8 11 C8.33 7.37 8.66 3.74 9 0 C9.99 0 10.98 0 12 0 C12.1080023 2.10304477 12.18558987 4.20766909 12.25 6.3125 C12.29640625 7.48425781 12.3428125 8.65601563 12.390625 9.86328125 C12 13 12 13 10.1796875 14.9296875 C7.11398767 16.43506698 5.22859839 15.91242998 2 15 C0 13 0 13 -0.1953125 9.9609375 C-0.17210938 8.77757812 -0.14890625 7.59421875 -0.125 6.375 C-0.10695313 5.18648438 -0.08890625 3.99796875 -0.0703125 2.7734375 C-0.04710938 1.85820312 -0.02390625 0.94296875 0 0 Z " fill="#C7A976" transform="translate(114,359)"/>
<path d="M0 0 C3.3 0 6.6 0 10 0 C10 0.99 10 1.98 10 3 C7.69 3 5.38 3 3 3 C3.33 3.66 3.66 4.32 4 5 C6.52733235 5.65555119 6.52733235 5.65555119 9 6 C9 6.99 9 7.98 9 9 C7.02 9 5.04 9 3 9 C3 9.99 3 10.98 3 12 C5.31 12 7.62 12 10 12 C10 12.99 10 13.98 10 15 C6.7 15 3.4 15 0 15 C0 10.05 0 5.1 0 0 Z " fill="#B99965" transform="translate(205,359)"/>
<path d="M0 0 C0.99 0 1.98 0 3 0 C3 7.92 3 15.84 3 24 C1.35 23.67 -0.3 23.34 -2 23 C-2 16.4 -2 9.8 -2 3 C-1.34 3.66 -0.68 4.32 0 5 C0 3.35 0 1.7 0 0 Z " fill="#BD954A" transform="translate(402,160)"/>
<path d="M0 0 C0.495 1.485 0.495 1.485 1 3 C-0.299375 2.835 -1.59875 2.67 -2.9375 2.5 C-15.14363223 1.2051217 -25.91681201 2.3428422 -36 10 C-36.66 10.66 -37.32 11.32 -38 12 C-38 9.36 -38 6.72 -38 4 C-35.03 4.495 -35.03 4.495 -32 5 C-32 4.34 -32 3.68 -32 3 C-21.24624056 -1.41179875 -11.41477195 -2.12087153 0 0 Z " fill="#BD9651" transform="translate(172,206)"/>
<path d="M0 0 C0.33 0.66 0.66 1.32 1 2 C9.58 2 18.16 2 27 2 C27 2.66 27 3.32 27 4 C19.00861581 5.08446979 11.02114786 6.15566865 3 7 C2.67 7.99 2.34 8.98 2 10 C1 12 1 12 -1 15 C-1.91457003 9.43842552 -2.32086397 5.324335 0 0 Z " fill="#C89F49" transform="translate(300,262)"/>
<path d="M0 0 C0.66 0 1.32 0 2 0 C2.02505615 0.92224365 2.0501123 1.8444873 2.07592773 2.79467773 C2.17174768 6.25571158 2.27093418 9.71661647 2.37231445 13.17749023 C2.41530564 14.66801252 2.45700136 16.1585728 2.49731445 17.64916992 C2.70979119 25.47408484 2.95778024 33.23152159 4 41 C-1.54612101 35.45387899 -1.12403148 25.66862968 -1.13671875 18.24023438 C-1.13285156 17.48033203 -1.12898438 16.72042969 -1.125 15.9375 C-1.12886719 15.17373047 -1.13273437 14.40996094 -1.13671875 13.62304688 C-1.1287749 8.97986788 -0.76637804 4.58002115 0 0 Z " fill="#BE9B5A" transform="translate(93,226)"/>
<path d="M0 0 C2.97 0 5.94 0 9 0 C9 0.99 9 1.98 9 3 C7.02 3 5.04 3 3 3 C3.33 3.66 3.66 4.32 4 5 C6.52733235 5.65555119 6.52733235 5.65555119 9 6 C8.67 6.99 8.34 7.98 8 9 C6.35 9 4.7 9 3 9 C3 9.99 3 10.98 3 12 C4.98 12 6.96 12 9 12 C9 12.99 9 13.98 9 15 C6.03 15 3.06 15 0 15 C0 10.05 0 5.1 0 0 Z " fill="#C3A574" transform="translate(317,359)"/>
<path d="M0 0 C0.66 0 1.32 0 2 0 C2 9.24 2 18.48 2 28 C-8.23 28 -18.46 28 -29 28 C-29 27.67 -29 27.34 -29 27 C-28.35973877 26.97494385 -27.71947754 26.9498877 -27.05981445 26.92407227 C-24.14386274 26.8076454 -21.2281971 26.68513133 -18.3125 26.5625 C-17.30509766 26.52318359 -16.29769531 26.48386719 -15.25976562 26.44335938 C-14.28330078 26.40146484 -13.30683594 26.35957031 -12.30078125 26.31640625 C-10.95753784 26.26141968 -10.95753784 26.26141968 -9.5871582 26.20532227 C-6.99221912 25.99938249 -4.53945316 25.56232178 -2 25 C-1.13888484 21.97230685 -0.81769107 19.15733363 -0.68359375 16.015625 C-0.64169922 15.08105469 -0.59980469 14.14648438 -0.55664062 13.18359375 C-0.51732422 12.21550781 -0.47800781 11.24742187 -0.4375 10.25 C-0.39431641 9.26644531 -0.35113281 8.28289062 -0.30664062 7.26953125 C-0.20077948 4.84648725 -0.09869829 2.4233446 0 0 Z " fill="#C7B488" transform="translate(376,236)"/>
<path d="M0 0 C0.33 0.99 0.66 1.98 1 3 C0.0925 3.391875 -0.815 3.78375 -1.75 4.1875 C-5.15319801 6.08543735 -6.68188403 7.93677533 -9 11 C-9.66 11 -10.32 11 -11 11 C-11 12.32 -11 13.64 -11 15 C-12.48134261 16.28812401 -13.96967821 17.57212515 -15.53125 18.76171875 C-17.32700274 20.27569114 -18.18835979 21.80857144 -19 24 C-20.32 24 -21.64 24 -23 24 C-18.73953345 12.48468239 -9.8277685 6.52912775 0 0 Z " fill="#E2BA68" transform="translate(239,189)"/>
<path d="M0 0 C0.82346924 0.00193359 1.64693848 0.00386719 2.49536133 0.00585938 C11.11903706 0.0649088 19.70998056 0.54944314 28.3125 1.125 C24.58846552 3.53509173 20.91064637 3.41504429 16.625 3.390625 C15.88548096 3.39253845 15.14596191 3.3944519 14.3840332 3.39642334 C12.82405252 3.39778135 11.26406039 3.39411176 9.70410156 3.38574219 C7.32070453 3.37503685 4.93806118 3.38565011 2.5546875 3.3984375 C1.03645668 3.39711584 -0.48177368 3.3945533 -2 3.390625 C-3.06577271 3.39669769 -3.06577271 3.39669769 -4.15307617 3.40289307 C-7.82711241 3.3681926 -10.56380885 3.14656619 -13.6875 1.125 C-9.1025651 -0.0280974 -4.69353836 -0.02669763 0 0 Z " fill="#D8D3CC" transform="translate(111.6875,308.875)"/>
<path d="M0 0 C10.23 0 20.46 0 31 0 C31 0.66 31 1.32 31 2 C32.485 2.495 32.485 2.495 34 3 C29.64009127 3.07418046 25.28051721 3.12861544 20.92016602 3.16479492 C19.43702801 3.17987768 17.95393456 3.20034689 16.47094727 3.22631836 C14.33859255 3.26272616 12.20682765 3.27973073 10.07421875 3.29296875 C8.79119873 3.3086792 7.50817871 3.32438965 6.1862793 3.34057617 C3 3 3 3 0 0 Z " fill="#A3741C" transform="translate(167,322)"/>
<path d="M0 0 C1.32 0.33 2.64 0.66 4 1 C4 1.66 4 2.32 4 3 C4.556875 2.731875 5.11375 2.46375 5.6875 2.1875 C8 2 8 2 10.75 4.3125 C13 7 13 7 13 9 C12.34 9 11.68 9 11 9 C11.33 9.99 11.66 10.98 12 12 C12.66 12 13.32 12 14 12 C14 13.65 14 15.3 14 17 C7.56436071 13.62128937 3.8049192 8.08400786 0 2 C0 1.34 0 0.68 0 0 Z " fill="#BB9C63" transform="translate(305,288)"/>
<path d="M0 0 C0.56074219 0.46019531 1.12148438 0.92039063 1.69921875 1.39453125 C-4.05078125 1.51953125 -4.05078125 1.51953125 -6.30078125 0.39453125 C-6.30078125 -0.26546875 -6.30078125 -0.92546875 -6.30078125 -1.60546875 C-21.37654244 -1.77178775 -21.37654244 -1.77178775 -35.55859375 2.5546875 C-37.30078125 3.39453125 -37.30078125 3.39453125 -40.30078125 3.39453125 C-40.63078125 4.05453125 -40.96078125 4.71453125 -41.30078125 5.39453125 C-41.96078125 4.73453125 -42.62078125 4.07453125 -43.30078125 3.39453125 C-29.82479347 -2.78034499 -13.73330691 -9.58300363 0 0 Z " fill="#EADCAB" transform="translate(283.30078125,184.60546875)"/>
<path d="M0 0 C-3.08809695 1.76462683 -4.23312136 2 -8 2 C-8 5.99904969 -6.27413033 7.80200422 -4 11 C-15.04479557 7.92230005 -15.04479557 7.92230005 -20 5 C-20.33 4.34 -20.66 3.68 -21 3 C-19.10454608 2.51933465 -17.20861961 2.04053257 -15.3125 1.5625 C-14.25675781 1.29566406 -13.20101562 1.02882812 -12.11328125 0.75390625 C-3.78706395 -1.26235465 -3.78706395 -1.26235465 0 0 Z " fill="#C49F55" transform="translate(239,139)"/>
<path d="M0 0 C3.3 0 6.6 0 10 0 C10 0.99 10 1.98 10 3 C9.01 3 8.02 3 7 3 C7 6.96 7 10.92 7 15 C5.68 15 4.36 15 3 15 C3 11.04 3 7.08 3 3 C2.01 3 1.02 3 0 3 C0 2.01 0 1.02 0 0 Z " fill="#C6AB79" transform="translate(186,359)"/>
<path d="M0 0 C0 0.33 0 0.66 0 1 C-1.3921875 1.433125 -1.3921875 1.433125 -2.8125 1.875 C-6.09791667 2.8875 -6.09791667 2.8875 -9 5 C-11.33199388 5.07905064 -13.66832622 5.08798769 -16 5 C-16 5.66 -16 6.32 -16 7 C-21.445 8.485 -21.445 8.485 -27 10 C-26.67 8.68 -26.34 7.36 -26 6 C-23.5625 5 -23.5625 5 -20 4 C-18.41471879 3.29603691 -16.83154478 2.58731781 -15.25 1.875 C-10.07512692 -0.24842816 -5.52711567 -0.42335354 0 0 Z " fill="#E0BB63" transform="translate(266,183)"/>
<path d="M0 0 C5.445 0.495 5.445 0.495 11 1 C11 1.66 11 2.32 11 3 C7.25149397 3.84015157 3.50097168 4.67093219 -0.25 5.5 C-1.84521484 5.85771484 -1.84521484 5.85771484 -3.47265625 6.22265625 C-5.00986328 6.56103516 -5.00986328 6.56103516 -6.578125 6.90625 C-7.99206543 7.22045898 -7.99206543 7.22045898 -9.43457031 7.54101562 C-12 8 -12 8 -16 8 C-16.33 8.99 -16.66 9.98 -17 11 C-17 9.35 -17 7.7 -17 6 C-11.39 4.68 -5.78 3.36 0 2 C0 1.34 0 0.68 0 0 Z " fill="#C9A86B" transform="translate(382,162)"/>
<path d="M0 0 C0.5674292 0.13567383 1.1348584 0.27134766 1.71948242 0.41113281 C6.65653199 1.50398853 11.4349601 2.16812678 16.48828125 2.421875 C17.60654297 2.47859375 18.72480469 2.5353125 19.87695312 2.59375 C22.18615828 2.69877354 24.49618011 2.78705203 26.80664062 2.859375 C35.08593415 3.32013568 35.08593415 3.32013568 37.90380859 5.41601562 C39.29296875 7.078125 39.29296875 7.078125 41 10 C40.67 10.66 40.34 11.32 40 12 C37.5 10.1875 37.5 10.1875 35 8 C35 7.01 35 6.02 35 5 C34.21351074 5.01047363 33.42702148 5.02094727 32.61669922 5.03173828 C29.03616561 5.07343991 25.45568324 5.09937139 21.875 5.125 C20.01875 5.15013672 20.01875 5.15013672 18.125 5.17578125 C16.92617188 5.18222656 15.72734375 5.18867188 14.4921875 5.1953125 C13.39245605 5.20578613 12.29272461 5.21625977 11.15966797 5.22705078 C7.81543058 4.98673701 5.12291305 4.18909337 2 3 C2 2.34 2 1.68 2 1 C1.34 0.67 0.68 0.34 0 0 Z " fill="#D2C09B" transform="translate(264,292)"/>
<path d="M0 0 C0.33 0 0.66 0 1 0 C1.09796875 1.0621875 1.1959375 2.124375 1.296875 3.21875 C2.08474885 10.94137446 2.82196493 17.28982246 7 24 C7.5775 24.99 8.155 25.98 8.75 27 C9.36875 27.99 9.36875 27.99 10 29 C8.35 29.33 6.7 29.66 5 30 C4.34 27.69 3.68 25.38 3 23 C2.01 23 1.02 23 0 23 C-1.33257403 7.25512528 -1.33257403 7.25512528 0 0 Z " fill="#B89344" transform="translate(123,237)"/>
<path d="M0 0 C9.24 0 18.48 0 28 0 C28 6.6 28 13.2 28 20 C27.67 20 27.34 20 27 20 C26.67 14.06 26.34 8.12 26 2 C17.59770302 1.69092294 17.59770302 1.69092294 9.28125 2.5625 C5.88158471 3.2144906 3.22619986 2.07539995 0 1 C0 0.67 0 0.34 0 0 Z " fill="#AD8E4E" transform="translate(348,236)"/>
<path d="M0 0 C3.63 0 7.26 0 11 0 C11 0.99 11 1.98 11 3 C9.68 3 8.36 3 7 3 C7 6.96 7 10.92 7 15 C6.01 15 5.02 15 4 15 C4 11.04 4 7.08 4 3 C3.01 3 2.02 3 1 3 C0.67 2.01 0.34 1.02 0 0 Z " fill="#BEA47C" transform="translate(235,359)"/>
<path d="M0 0 C1.05960938 0.00676758 1.05960938 0.00676758 2.140625 0.01367188 C3.88545275 0.02546125 5.630237 0.04339676 7.375 0.0625 C7.705 1.0525 8.035 2.0425 8.375 3.0625 C4.50776369 4.32832219 0.64348738 4.1743765 -3.375 4.125 C-4.07238281 4.12048828 -4.76976563 4.11597656 -5.48828125 4.11132812 C-7.20055803 4.0996002 -8.91279033 4.08166653 -10.625 4.0625 C-10.295 3.0725 -9.965 2.0825 -9.625 1.0625 C-6.55966836 -0.47016582 -3.35745728 -0.04026471 0 0 Z " fill="#A27124" transform="translate(106.625,296.9375)"/>
<path d="M0 0 C4.44870215 -0.39253254 7.14243493 0.84694043 11 3 C11 3.66 11 4.32 11 5 C12.26457031 5.12117188 13.52914063 5.24234375 14.83203125 5.3671875 C16.49223198 5.53602147 18.15238589 5.70531633 19.8125 5.875 C21.06256836 5.99294922 21.06256836 5.99294922 22.33789062 6.11328125 C23.14033203 6.19707031 23.94277344 6.28085937 24.76953125 6.3671875 C25.87711792 6.47716064 25.87711792 6.47716064 27.00708008 6.58935547 C29 7 29 7 32 9 C33.32567199 9.68177416 34.65753688 10.35191436 36 11 C22.773822 10.23134436 11.61992383 7.4694711 0 1 C0 0.67 0 0.34 0 0 Z " fill="#D2C29A" transform="translate(332,315)"/>
<path d="M0 0 C1.6097168 0.07250977 1.6097168 0.07250977 3.25195312 0.14648438 C4.37150391 0.20255859 5.49105469 0.25863281 6.64453125 0.31640625 C8.34125977 0.3947168 8.34125977 0.3947168 10.07226562 0.47460938 C12.86746405 0.60434432 15.66231065 0.73931266 18.45703125 0.87890625 C19.11703125 2.19890625 19.77703125 3.51890625 20.45703125 4.87890625 C19.35246582 4.78802734 19.35246582 4.78802734 18.22558594 4.6953125 C14.88620226 4.42150621 11.54662163 4.15017923 8.20703125 3.87890625 C7.04816406 3.78351563 5.88929688 3.688125 4.6953125 3.58984375 C3.02275391 3.45449219 3.02275391 3.45449219 1.31640625 3.31640625 C-0.22321777 3.19072266 -0.22321777 3.19072266 -1.79394531 3.0625 C-4.03944984 2.9125338 -6.29246204 2.87890625 -8.54296875 2.87890625 C-8.54296875 2.21890625 -8.54296875 1.55890625 -8.54296875 0.87890625 C-5.3500005 -0.1854165 -3.33851934 -0.15897711 0 0 Z " fill="#C89F4D" transform="translate(218.54296875,263.12109375)"/>
<path d="M0 0 C0.33 3.63 0.66 7.26 1 11 C0.01 11.495 0.01 11.495 -1 12 C-1.33 11.34 -1.66 10.68 -2 10 C-3.32 10 -4.64 10 -6 10 C-6 12.64 -6 15.28 -6 18 C-6.33 18 -6.66 18 -7 18 C-8.08995439 12.09060874 -8.48767423 8.23151135 -5 3 C-2.5 0 -2.5 0 0 0 Z " fill="#B68F4C" transform="translate(404,202)"/>
<path d="M0 0 C0.99 0 1.98 0 3 0 C3.22304441 1.74818591 3.4278645 3.49870323 3.625 5.25 C3.74101562 6.22453125 3.85703125 7.1990625 3.9765625 8.203125 C4.00112537 11.13429393 3.5312717 12.54528964 2 15 C0.02 15 -1.96 15 -4 15 C-4 13.68 -4 12.36 -4 11 C-2.02 11.495 -2.02 11.495 0 12 C0 8.04 0 4.08 0 0 Z " fill="#B5A48A" transform="translate(134,359)"/>
<path d="M0 0 C3.03852705 1.40976705 5.5939595 3.08870228 8.25 5.125 C8.95640625 5.66382813 9.6628125 6.20265625 10.390625 6.7578125 C10.92171875 7.16773438 11.4528125 7.57765625 12 8 C10.61811547 11.21043882 9.07578097 13.04936365 6.375 15.25 C5.74335938 15.77078125 5.11171875 16.2915625 4.4609375 16.828125 C3.97882813 17.21484375 3.49671875 17.6015625 3 18 C3.875 12.25 3.875 12.25 5 10 C5.66 10 6.32 10 7 10 C6.525625 9.21625 6.05125 8.4325 5.5625 7.625 C4.66101977 6.11051322 3.78820515 4.5764103 3 3 C2.34 3 1.68 3 1 3 C0.67 2.01 0.34 1.02 0 0 Z " fill="#BB9654" transform="translate(197,185)"/>
<path d="M0 0 C2.31 0 4.62 0 7 0 C6.319375 0.53625 5.63875 1.0725 4.9375 1.625 C3.968125 2.40875 2.99875 3.1925 2 4 C1.43410156 4.43570313 0.86820313 4.87140625 0.28515625 5.3203125 C-3.80658747 8.59728887 -6.47280982 11.8956306 -9.0546875 16.4609375 C-9.36664063 16.96882813 -9.67859375 17.47671875 -10 18 C-10.33 18 -10.66 18 -11 18 C-11 16.02 -11 14.04 -11 12 C-9.68 11.34 -8.36 10.68 -7 10 C-7 8.68 -7 7.36 -7 6 C-6.01 6 -5.02 6 -4 6 C-4 5.01 -4 4.02 -4 3 C-2.68 2.67 -1.36 2.34 0 2 C0 1.34 0 0.68 0 0 Z " fill="#E6D195" transform="translate(251,214)"/>
<path d="M0 0 C1.32 0.66 2.64 1.32 4 2 C2.515 4.475 2.515 4.475 1 7 C5.62 7.66 10.24 8.32 15 9 C15 9.66 15 10.32 15 11 C12.20743781 10.88638398 9.41655882 10.7596411 6.625 10.625 C5.8309375 10.5940625 5.036875 10.563125 4.21875 10.53125 C-1.7734375 10.2265625 -1.7734375 10.2265625 -4 8 C-2.68 5.36 -1.36 2.72 0 0 Z " fill="#C9AA6F" transform="translate(258,165)"/>
<path d="M0 0 C3.8633571 1.82631427 7.2631843 4.15286596 10.78125 6.5625 C12.80445853 7.87331116 14.82287326 8.97081281 17 10 C17 10.66 17 11.32 17 12 C15.54207116 12.05399736 14.08357288 12.09279177 12.625 12.125 C11.81289063 12.14820313 11.00078125 12.17140625 10.1640625 12.1953125 C8 12 8 12 6 10 C6.33 9.67 6.66 9.34 7 9 C6.01 8.67 5.02 8.34 4 8 C2.83203125 6.15234375 2.83203125 6.15234375 1.8125 3.9375 C1.46832031 3.20402344 1.12414062 2.47054688 0.76953125 1.71484375 C0.51558594 1.14894531 0.26164062 0.58304687 0 0 Z " fill="#B49B68" transform="translate(315,314)"/>
<path d="M0 0 C7.44302097 2.39690506 14.71837152 5.15262441 22 8 C18.88199089 9.82850425 18.30145889 10.06577285 14.5625 9.25 C13.386875 8.8375 12.21125 8.425 11 8 C10.0925 7.690625 9.185 7.38125 8.25 7.0625 C5.93146086 5.96763429 4.75345188 4.82968892 3 3 C0.90010348 1.82425289 0.90010348 1.82425289 -1 1 C-0.67 0.67 -0.34 0.34 0 0 Z " fill="#BD924C" transform="translate(334,131)"/>
<path d="M0 0 C1.63001953 0.01353516 1.63001953 0.01353516 3.29296875 0.02734375 C4.12441406 0.03894531 4.95585938 0.05054688 5.8125 0.0625 C5.8125 0.3925 5.8125 0.7225 5.8125 1.0625 C5.05324219 1.09988281 4.29398438 1.13726562 3.51171875 1.17578125 C2.51785156 1.24152344 1.52398437 1.30726563 0.5 1.375 C-0.48613281 1.43300781 -1.47226563 1.49101562 -2.48828125 1.55078125 C-5.55846041 1.8704356 -5.55846041 1.8704356 -8.1875 5.0625 C-3.5675 5.0625 1.0525 5.0625 5.8125 5.0625 C5.8125 5.3925 5.8125 5.7225 5.8125 6.0625 C4.68070313 6.11148437 3.54890625 6.16046875 2.3828125 6.2109375 C0.90101661 6.28596514 -0.580753 6.36151297 -2.0625 6.4375 C-2.80886719 6.4684375 -3.55523437 6.499375 -4.32421875 6.53125 C-8.72223188 6.61893831 -8.72223188 6.61893831 -12.1875 9.0625 C-13.1775 8.7325 -14.1675 8.4025 -15.1875 8.0625 C-13.79165208 4.68920085 -12.26384389 3.02017338 -9.1875 1.0625 C-5.90230525 -0.03256492 -3.45086585 -0.03710608 0 0 Z " fill="#E1CA9F" transform="translate(104.1875,295.9375)"/>
<path d="M0 0 C3.38133995 3.1614154 4.77337801 5.50238605 6 10 C5.01 10.66 4.02 11.32 3 12 C2.27034634 14.56282742 2.27034634 14.56282742 2 17 C0.48046875 15.94921875 0.48046875 15.94921875 -1 14 C-1.07421875 10.64453125 -1.07421875 10.64453125 -0.6875 6.8125 C-0.56761719 5.54019531 -0.44773437 4.26789063 -0.32421875 2.95703125 C-0.21722656 1.98121094 -0.11023438 1.00539063 0 0 Z " fill="#C6A56B" transform="translate(384,358)"/>
<path d="M0 0 C4.33304076 0.64465202 7.86672065 2.18925122 11.8125 4.0625 C12.97394531 4.61035156 14.13539063 5.15820312 15.33203125 5.72265625 C16.21246094 6.14417969 17.09289062 6.56570312 18 7 C17.67 7.66 17.34 8.32 17 9 C15.576875 8.9690625 15.576875 8.9690625 14.125 8.9375 C11.09333717 8.77448174 11.09333717 8.77448174 9 10 C8.67 8.35 8.34 6.7 8 5 C7.05125 4.9175 6.1025 4.835 5.125 4.75 C2 4 2 4 0.625 1.9375 C0.41875 1.298125 0.2125 0.65875 0 0 Z " fill="#B7842E" transform="translate(379,150)"/>
<path d="M0 0 C3.50015029 2.33343353 4.40382422 4.16917814 6 8 C5.67 8.66 5.34 9.32 5 10 C4.360625 9.814375 3.72125 9.62875 3.0625 9.4375 C2.0415625 9.2209375 2.0415625 9.2209375 1 9 C0.67 9.33 0.34 9.66 0 10 C0.99 10.66 1.98 11.32 3 12 C1.35 12 -0.3 12 -2 12 C-3.1171875 10.265625 -3.1171875 10.265625 -4 8 C-3.3203125 5.859375 -3.3203125 5.859375 -2.125 3.75 C-1.73570312 3.04359375 -1.34640625 2.3371875 -0.9453125 1.609375 C-0.63335937 1.07828125 -0.32140625 0.5471875 0 0 Z " fill="#D3B27C" transform="translate(269,358)"/>
<path d="M0 0 C2.64 0 5.28 0 8 0 C8 0.66 8 1.32 8 2 C6.35 2 4.7 2 3 2 C3 3.32 3 4.64 3 6 C4.32 6 5.64 6 7 6 C7 6.66 7 7.32 7 8 C5.35 8 3.7 8 2 8 C2 9.98 2 11.96 2 14 C1.34 14 0.68 14 0 14 C0 9.38 0 4.76 0 0 Z " fill="#BB9449" transform="translate(158,360)"/>
<path d="M0 0 C3.0916909 2.52956528 3.90931332 5.22454612 5 9 C3.68 9 2.36 9 1 9 C0.34 9.66 -0.32 10.32 -1 11 C0.32 11.33 1.64 11.66 3 12 C1.35 12 -0.3 12 -2 12 C-2 11.34 -2 10.68 -2 10 C-2.66 10 -3.32 10 -4 10 C-2.8905928 6.51329166 -1.73662334 3.22515763 0 0 Z " fill="#D9BC84" transform="translate(372,358)"/>
<path d="M0 0 C8.91 0 17.82 0 27 0 C27 0.66 27 1.32 27 2 C18.09 2 9.18 2 0 2 C0 1.34 0 0.68 0 0 Z " fill="#EAE4DF" transform="translate(97,304)"/>
<path d="M0 0 C0 0.33 0 0.66 0 1 C-6.27 1 -12.54 1 -19 1 C-19.33 1.99 -19.66 2.98 -20 4 C-24.62 4 -29.24 4 -34 4 C-24.63033426 -2.24644382 -10.78598986 -0.19015457 0 0 Z " fill="#D3B886" transform="translate(170,175)"/>
<path d="M0 0 C0.33 0.66 0.66 1.32 1 2 C2.32 1.67 3.64 1.34 5 1 C5.28875 2.093125 5.5775 3.18625 5.875 4.3125 C6.81893204 8.04013845 6.81893204 8.04013845 9 11 C8.67 11.99 8.34 12.98 8 14 C4.7 10.37 1.4 6.74 -2 3 C-1 1 -1 1 0 0 Z " fill="#C09037" transform="translate(106,279)"/>
<path d="M0 0 C0.76183594 0.40992188 1.52367187 0.81984375 2.30859375 1.2421875 C8.54360985 4.49591625 14.05777152 6.84296192 21 8 C21 8.33 21 8.66 21 9 C14.34809022 10.16144457 9.0692837 10.30480665 3 7 C0.99770203 4.51229646 0 3.19030016 0 0 Z " fill="#C0A262" transform="translate(135,268)"/>
<path d="M0 0 C0.99 0 1.98 0 3 0 C3 4.95 3 9.9 3 15 C1.68 14.34 0.36 13.68 -1 13 C-0.7215625 11.9790625 -0.7215625 11.9790625 -0.4375 10.9375 C0.0836907 7.4380767 -0.46472947 4.47925842 -1 1 C-0.67 0.67 -0.34 0.34 0 0 Z " fill="#C29D56" transform="translate(229,359)"/>
<path d="M0 0 C2.31 0 4.62 0 7 0 C7.6875 1.6875 7.6875 1.6875 8 4 C6.5625 6.75 6.5625 6.75 5 9 C2.69 8.34 0.38 7.68 -2 7 C-2 6.67 -2 6.34 -2 6 C-1.195625 5.87625 -0.39125 5.7525 0.4375 5.625 C1.283125 5.41875 2.12875 5.2125 3 5 C3.33 4.34 3.66 3.68 4 3 C3.01 3.33 2.02 3.66 1 4 C0.34 3.67 -0.32 3.34 -1 3 C-0.67 2.01 -0.34 1.02 0 0 Z " fill="#CCAE79" transform="translate(103,365)"/>
<path d="M0 0 C0.33 0 0.66 0 1 0 C2.05476879 4.95350675 1.95554228 9.37839349 1.5625 14.375 C1.51029297 15.11105469 1.45808594 15.84710938 1.40429688 16.60546875 C1.27582277 18.40410629 1.13879051 20.20212909 1 22 C-1 20 -1 20 -1.1953125 17.3984375 C-1.17210938 16.40070313 -1.14890625 15.40296875 -1.125 14.375 C-1.10695313 13.37210938 -1.08890625 12.36921875 -1.0703125 11.3359375 C-1.04710938 10.56507813 -1.02390625 9.79421875 -1 9 C-1.99 9 -2.98 9 -4 9 C-3.35499066 5.51694958 -1.95865224 2.93797836 0 0 Z " fill="#AA730E" transform="translate(122,231)"/>
<path d="M0 0 C1.11503906 0.00322266 2.23007812 0.00644531 3.37890625 0.00976562 C4.53777344 0.01814453 5.69664062 0.02652344 6.890625 0.03515625 C8.06496094 0.03966797 9.23929687 0.04417969 10.44921875 0.04882812 C13.34640572 0.06060531 16.24348954 0.07705299 19.140625 0.09765625 C19.140625 0.42765625 19.140625 0.75765625 19.140625 1.09765625 C15.62028294 1.43631523 12.09928482 1.7676172 8.578125 2.09765625 C7.0921582 2.24074219 7.0921582 2.24074219 5.57617188 2.38671875 C0.40522072 2.86773746 -4.66622452 3.21419259 -9.859375 3.09765625 C-9.859375 2.43765625 -9.859375 1.77765625 -9.859375 1.09765625 C-6.51551102 0.08680197 -3.4845632 -0.01777838 0 0 Z " fill="#D9BD7A" transform="translate(361.859375,180.90234375)"/>
<path d="M0 0 C1.32 0 2.64 0 4 0 C4.33 3.63 4.66 7.26 5 11 C1 11 1 11 -3 9 C-2.01 6.03 -1.02 3.06 0 0 Z " fill="#E2D5C6" transform="translate(396,221)"/>
<path d="M0 0 C0.66 3.96 1.32 7.92 2 12 C0.35 12.33 -1.3 12.66 -3 13 C-4.58651723 9.82696553 -4.41696583 6.45586933 -4 3 C-1.84375 0 -1.84375 0 0 0 Z " fill="#E7E0D3" transform="translate(405,219)"/>
<path d="M0 0 C0.66 0.33 1.32 0.66 2 1 C0.9024777 3.99324263 0.32317108 4.84610901 -2.625 6.25 C-3.800625 6.62125 -3.800625 6.62125 -5 7 C-5 7.66 -5 8.32 -5 9 C-6.32 9.33 -7.64 9.66 -9 10 C-9 10.66 -9 11.32 -9 12 C-10.32 11.67 -11.64 11.34 -13 11 C-11.21079529 9.3514184 -9.4187995 7.70606879 -7.625 6.0625 C-6.86316406 5.35963867 -6.86316406 5.35963867 -6.0859375 4.64257812 C-2.2265625 1.11328125 -2.2265625 1.11328125 0 0 Z " fill="#E8D098" transform="translate(326,191)"/>
<path d="M0 0 C0.928125 0.515625 1.85625 1.03125 2.8125 1.5625 C2.23905063 4.42974686 1.9510485 5.4239515 -0.1875 7.5625 C-1.1775 5.9125 -2.1675 4.2625 -3.1875 2.5625 C-4.1775 3.5525 -5.1675 4.5425 -6.1875 5.5625 C-6.8475 4.5725 -7.5075 3.5825 -8.1875 2.5625 C-5.50124649 -1.46688026 -4.45719464 -2.01010739 0 0 Z " fill="#B2914A" transform="translate(296.1875,195.4375)"/>
<path d="M0 0 C0.33 0.99 0.66 1.98 1 3 C0.0925 3.391875 -0.815 3.78375 -1.75 4.1875 C-5.18677475 6.10416284 -6.58919803 7.96705558 -9 11 C-11.6875 12.1875 -11.6875 12.1875 -14 13 C-14.33 13.66 -14.66 14.32 -15 15 C-15.66 14.67 -16.32 14.34 -17 14 C-12.12867442 8.80391938 -6.39695777 3.19847889 0 0 Z " fill="#E8D49F" transform="translate(239,189)"/>
<path d="M0 0 C-0.33 0.66 -0.66 1.32 -1 2 C1.97 2.495 1.97 2.495 5 3 C5.33 2.01 5.66 1.02 6 0 C6.66 1.65 7.32 3.3 8 5 C3.38 5 -1.24 5 -6 5 C-6 4.34 -6 3.68 -6 3 C-6.66 2.34 -7.32 1.68 -8 1 C-5.07175348 0.02391783 -3.04386724 -0.08226668 0 0 Z " fill="#9D6C15" transform="translate(358,170)"/>
<path d="M0 0 C2.0625 0.6875 2.0625 0.6875 5 2 C6.66137875 2.51729915 8.32869135 3.01574266 10 3.5 C13.41736109 4.50480617 16.72654656 5.58150351 20 7 C20 7.33 20 7.66 20 8 C11.72550999 7.57200914 4.66700112 4.95555804 -3 2 C-2.01 1.34 -1.02 0.68 0 0 Z " fill="#C4A367" transform="translate(132,301)"/>
<path d="M0 0 C0.66 0 1.32 0 2 0 C2.31453125 0.59167969 2.6290625 1.18335938 2.953125 1.79296875 C5.33264624 6.18648236 7.70038047 10.21154795 11 14 C9 13 7 12 5 11 C4.67 11.66 4.34 12.32 4 13 C4 12.34 4 11.68 4 11 C3.34 11 2.68 11 2 11 C0.80712589 7.12315913 0 4.08378077 0 0 Z " fill="#C9B186" transform="translate(239,268)"/>
<path d="M0 0 C0.99 0 1.98 0 3 0 C3 4.29 3 8.58 3 13 C1.68 13.33 0.36 13.66 -1 14 C-0.67 9.38 -0.34 4.76 0 0 Z " fill="#B3925B" transform="translate(123,359)"/>
<path d="M0 0 C4.75 0.75 4.75 0.75 7 3 C7.66 2.01 8.32 1.02 9 0 C10.32 0 11.64 0 13 0 C11.25 4.875 11.25 4.875 9 6 C7.65938457 5.69728039 6.32594105 5.36162029 5 5 C4.01 5 3.02 5 2 5 C1.34 3.35 0.68 1.7 0 0 Z " fill="#C1AA86" transform="translate(349,359)"/>
<path d="M0 0 C2.26663812 7.04276845 -0.94759215 14.61769268 -4 21 C-4.66 21 -5.32 21 -6 21 C-5.55355616 13.41045469 -2.88499438 6.98360263 0 0 Z " fill="#EAD8A7" transform="translate(302,217)"/>
<path d="M0 0 C0.33 1.32 0.66 2.64 1 4 C0.34 4 -0.32 4 -1 4 C-1.33 4.99 -1.66 5.98 -2 7 C-2.66 7 -3.32 7 -4 7 C-4.33 8.32 -4.66 9.64 -5 11 C-5.66 11 -6.32 11 -7 11 C-7.2165625 11.928125 -7.2165625 11.928125 -7.4375 12.875 C-8 15 -8 15 -9 17 C-9.66 17 -10.32 17 -11 17 C-9.42160732 10.1602984 -4.87740434 4.87740434 0 0 Z " fill="#B8954E" transform="translate(110,196)"/>
<path d="M0 0 C3.55702392 1.9761244 6.13747568 4.13747568 9 7 C9.99 7.33 10.98 7.66 12 8 C12 9.98 12 11.96 12 14 C11.67 13.01 11.34 12.02 11 11 C10.39671875 10.85433594 9.7934375 10.70867187 9.171875 10.55859375 C6.23334002 9.80281947 5.19068905 8.35566463 3.25 6.0625 C2.63640625 5.35222656 2.0228125 4.64195312 1.390625 3.91015625 C0 2 0 2 0 0 Z " fill="#BB964E" transform="translate(187,308)"/>
<path d="M0 0 C0.51949219 0.39832031 1.03898437 0.79664063 1.57421875 1.20703125 C5.27926842 4.02177323 8.93575065 6.71385974 13 9 C12.34 9.66 11.68 10.32 11 11 C11 10.34 11 9.68 11 9 C10.01 9.33 9.02 9.66 8 10 C5.8125 9.0625 5.8125 9.0625 4 8 C4 7.34 4 6.68 4 6 C2.35 5.67 0.7 5.34 -1 5 C-0.67 3.35 -0.34 1.7 0 0 Z " fill="#C4AE80" transform="translate(339,281)"/>
<path d="M0 0 C4.72065967 1.54269924 9.41664092 3.07794619 14 5 C14 5.33 14 5.66 14 6 C9.545 6.495 9.545 6.495 5 7 C4.34 6.01 3.68 5.02 3 4 C0.43717258 3.27034634 0.43717258 3.27034634 -2 3 C-1 1 -1 1 0 0 Z " fill="#BF9649" transform="translate(356,140)"/>
<path d="M0 0 C1.65 0.33 3.3 0.66 5 1 C4.125 6.75 4.125 6.75 3 9 C2.34 9 1.68 9 1 9 C1 9.99 1 10.98 1 12 C0.34 12 -0.32 12 -1 12 C-0.67 8.04 -0.34 4.08 0 0 Z " fill="#E3C473" transform="translate(328,224)"/>
<path d="M0 0 C1.32 1.32 2.64 2.64 4 4 C2.02 6.64 0.04 9.28 -2 12 C-4 8 -4 8 -3.3203125 5.859375 C-2.92585938 5.16328125 -2.53140625 4.4671875 -2.125 3.75 C-1.73570312 3.04359375 -1.34640625 2.3371875 -0.9453125 1.609375 C-0.63335937 1.07828125 -0.32140625 0.5471875 0 0 Z " fill="#C1AB7A" transform="translate(299,198)"/>
<path d="M0 0 C0.66 0 1.32 0 2 0 C1.67 1.98 1.34 3.96 1 6 C2.32 6.33 3.64 6.66 5 7 C3.35 7.33 1.7 7.66 0 8 C0 8.66 0 9.32 0 10 C-1.32 10 -2.64 10 -4 10 C-3.52449439 8.51965236 -3.04448784 7.04074979 -2.5625 5.5625 C-2.29566406 4.73878906 -2.02882812 3.91507812 -1.75390625 3.06640625 C-1 1 -1 1 0 0 Z " fill="#B69355" transform="translate(144,364)"/>
<path d="M0 0 C6.27 0 12.54 0 19 0 C19 0.33 19 0.66 19 1 C17.60587891 1.18175781 17.60587891 1.18175781 16.18359375 1.3671875 C6.96381236 2.61185801 6.96381236 2.61185801 -2 5 C-1.34 3.35 -0.68 1.7 0 0 Z " fill="#EBD6A1" transform="translate(260,209)"/>
<path d="M0 0 C0.33 0 0.66 0 1 0 C1 1.65 1 3.3 1 5 C2.32 5.66 3.64 6.32 5 7 C3.25 12.75 3.25 12.75 1 15 C-0.44207941 12.11584117 -0.09394887 9.58278472 -0.0625 6.375 C-0.05347656 5.18648438 -0.04445312 3.99796875 -0.03515625 2.7734375 C-0.02355469 1.85820312 -0.01195312 0.94296875 0 0 Z " fill="#B18D46" transform="translate(210,266)"/>
<path d="M0 0 C2.64 0 5.28 0 8 0 C8.33 0.66 8.66 1.32 9 2 C9.99 2.66 10.98 3.32 12 4 C12.33 4.66 12.66 5.32 13 6 C7.57689095 5.56615128 4.29855944 4.35497322 0 1 C0 0.67 0 0.34 0 0 Z " fill="#BB8E41" transform="translate(119,296)"/>
<path d="M0 0 C1.65 0.33 3.3 0.66 5 1 C5 1.66 5 2.32 5 3 C6.98 3 8.96 3 11 3 C10.34 4.32 9.68 5.64 9 7 C6.69 6.34 4.38 5.68 2 5 C2 4.34 2 3.68 2 3 C1.01 2.67 0.02 2.34 -1 2 C-0.67 1.34 -0.34 0.68 0 0 Z " fill="#AF914C" transform="translate(376,208)"/>
<path d="M0 0 C1.36125 0.37125 1.36125 0.37125 2.75 0.75 C3.08 2.07 3.41 3.39 3.75 4.75 C0.00838897 4.75 -3.53953557 4.23661829 -7.25 3.75 C-4.05 -0.31153846 -4.05 -0.31153846 0 0 Z " fill="#BBA17C" transform="translate(105.25,358.25)"/>
<path d="M0 0 C0 0.33 0 0.66 0 1 C-5.94 1 -11.88 1 -18 1 C-17.67 2.32 -17.34 3.64 -17 5 C-17.99 5 -18.98 5 -20 5 C-19.67 3.35 -19.34 1.7 -19 0 C-17.95199219 -0.09087891 -17.95199219 -0.09087891 -16.8828125 -0.18359375 C-15.97273438 -0.26738281 -15.06265625 -0.35117187 -14.125 -0.4375 C-13.22007812 -0.51871094 -12.31515625 -0.59992188 -11.3828125 -0.68359375 C-6.70743839 -1.30442212 -4.88664227 -1.53838738 0 0 Z " fill="#D2B770" transform="translate(347,263)"/>
<path d="M0 0 C0.33 0 0.66 0 1 0 C1.33910994 2.04071515 1.67102704 4.08262621 2 6.125 C2.185625 7.26195312 2.37125 8.39890625 2.5625 9.5703125 C2.96956049 12.76137602 3.07809902 15.78817791 3 19 C-0.43725148 15.56274852 -1.12650186 11.54421289 -1.1875 6.8125 C-1 3 -1 3 0 0 Z " fill="#C8A467" transform="translate(94,248)"/>
<path d="M0 0 C7.5659824 0.88269795 7.5659824 0.88269795 10.3125 1.625 C12.24116989 2.20544101 12.24116989 2.20544101 15 1 C13.25 4.875 13.25 4.875 11 6 C8.90625 5.29296875 8.90625 5.29296875 6.5 4.1875 C5.7059375 3.83042969 4.911875 3.47335938 4.09375 3.10546875 C2 2 2 2 0 0 Z " fill="#C8B68D" transform="translate(281,209)"/>
<path d="M0 0 C-0.33 0.66 -0.66 1.32 -1 2 C-1.99 2 -2.98 2 -4 2 C-4 2.99 -4 3.98 -4 5 C-6.02045442 4.39816251 -8.02111039 3.72693904 -10 3 C-10.33 2.34 -10.66 1.68 -11 1 C-3.57142857 -1.42857143 -3.57142857 -1.42857143 0 0 Z " fill="#C7A873" transform="translate(229,141)"/>
<path d="M0 0 C0 3.41987028 -0.47254343 5.94508687 -2 9 C-3.92713818 10.76164986 -5.96823666 12.35729773 -8 14 C-8.33 13.34 -8.66 12.68 -9 12 C-7.68858144 10.18671738 -6.37583526 8.37439486 -5.0625 6.5625 C-3.96615234 5.04849609 -3.96615234 5.04849609 -2.84765625 3.50390625 C-1 1 -1 1 0 0 Z " fill="#ECD9A6" transform="translate(312,203)"/>
<path d="M0 0 C-1 3 -1 3 -3 4 C-5.6723621 4.13415472 -8.32250488 4.04318541 -11 4 C-11 3.34 -11 2.68 -11 2 C-7.36576791 -0.32590854 -4.22911669 -0.16265833 0 0 Z " fill="#AE8E3F" transform="translate(395,186)"/>
<path d="M0 0 C2.64 0 5.28 0 8 0 C5.29954818 1.80030122 2.93322119 2.93377066 -0.0625 4.125 C-1.37927734 4.65480469 -1.37927734 4.65480469 -2.72265625 5.1953125 C-5 6 -5 6 -7 6 C-6.67 4.35 -6.34 2.7 -6 1 C-4.02 1 -2.04 1 0 1 C0 0.67 0 0.34 0 0 Z " fill="#C9A865" transform="translate(331,178)"/>
<path d="M0 0 C2.97 0.99 5.94 1.98 9 3 C7.5 4.6875 7.5 4.6875 5 6 C2.17076078 5.35208262 -0.38216883 4.23902204 -3 3 C-2.01 2.01 -1.02 1.02 0 0 Z " fill="#BF8F3D" transform="translate(370,146)"/>
<path d="M0 0 C0.66 0 1.32 0 2 0 C2 4.95 2 9.9 2 15 C1.67 15 1.34 15 1 15 C1 12.03 1 9.06 1 6 C-0.65 6.33 -2.3 6.66 -4 7 C-2.79618552 4.50638429 -1.54571278 2.31856917 0 0 Z " fill="#D9C296" transform="translate(398,359)"/>
<path d="M0 0 C2.34191563 2.1290142 3.83554954 4.04408729 5 7 C5 8.32 5 9.64 5 11 C4.34 11 3.68 11 3 11 C2.34 9.68 1.68 8.36 1 7 C0.01 7.495 0.01 7.495 -1 8 C-0.67 5.36 -0.34 2.72 0 0 Z " fill="#BA9C68" transform="translate(177,358)"/>
<path d="M0 0 C1.65 0 3.3 0 5 0 C5 0.66 5 1.32 5 2 C5.66 2 6.32 2 7 2 C7.7115625 3.2065625 7.7115625 3.2065625 8.4375 4.4375 C9.79983672 7.2918076 9.79983672 7.2918076 13 8 C13 8.66 13 9.32 13 10 C7.65978754 8.49806525 3.86352256 4.82517494 0 1 C0 0.67 0 0.34 0 0 Z " fill="#CEBB91" transform="translate(319,305)"/>
<path d="M0 0 C0.66 0 1.32 0 2 0 C2.33 1.65 2.66 3.3 3 5 C3.99 5 4.98 5 6 5 C6.77321882 7.98241547 7.41196203 10.97580475 8 14 C4.31534095 10.71012585 2.22105818 7.36279286 0 3 C0 2.01 0 1.02 0 0 Z " fill="#C29C61" transform="translate(179,294)"/>
<path d="M0 0 C0.33 0.99 0.66 1.98 1 3 C3.31 3 5.62 3 8 3 C8 3.99 8 4.98 8 6 C4.7 6 1.4 6 -2 6 C-1.34 4.02 -0.68 2.04 0 0 Z " fill="#C3A371" transform="translate(207,368)"/>
<path d="M0 0 C1.98 0 3.96 0 6 0 C6.66 1.98 7.32 3.96 8 6 C6.68 6 5.36 6 4 6 C3.34 5.01 2.68 4.02 2 3 C1.34 3.99 0.68 4.98 0 6 C0 4.02 0 2.04 0 0 Z " fill="#CFB47F" transform="translate(160,368)"/>
<path d="M0 0 C0.99 0 1.98 0 3 0 C3 3.63 3 7.26 3 11 C2.01 11.495 2.01 11.495 1 12 C0.03929566 9.11788698 -0.10581883 7.30149956 -0.0625 4.3125 C-0.05347656 3.50425781 -0.04445313 2.69601562 -0.03515625 1.86328125 C-0.02355469 1.24839844 -0.01195312 0.63351562 0 0 Z " fill="#C6A76B" transform="translate(292,359)"/>
<path d="M0 0 C4.82596069 3.15422267 9.57557408 6.28919117 14 10 C12.35 10 10.7 10 9 10 C9 9.34 9 8.68 9 8 C8.443125 7.938125 7.88625 7.87625 7.3125 7.8125 C4.00931958 6.6519231 2.28105267 4.59786554 0 2 C0 1.34 0 0.68 0 0 Z " fill="#CAB68D" transform="translate(250,282)"/>
<path d="M0 0 C0.75 1.75 0.75 1.75 1 4 C-0.9375 6.25 -0.9375 6.25 -3 8 C-4.5625 5.625 -4.5625 5.625 -6 3 C-4.60722783 0.21445565 -3.01148006 0 0 0 Z " fill="#BEA069" transform="translate(218,280)"/>
<path d="M0 0 C-1.59259259 4.77777778 -1.59259259 4.77777778 -3 7 C-5 7.875 -5 7.875 -7 8 C-7.66 7.34 -8.32 6.68 -9 6 C-8.67 5.34 -8.34 4.68 -8 4 C-7.34 4 -6.68 4 -6 4 C-5.67 3.01 -5.34 2.02 -5 1 C-2 0 -2 0 0 0 Z " fill="#AF8D47" transform="translate(390,204)"/>
<path d="M0 0 C-0.66 1.98 -1.32 3.96 -2 6 C-2.33 5.34 -2.66 4.68 -3 4 C-5.64 5.98 -8.28 7.96 -11 10 C-11 7 -11 7 -8.75 4.4375 C-3.74358974 0 -3.74358974 0 0 0 Z " fill="#E2BB5B" transform="translate(239,193)"/>
<path d="M0 0 C-0.71027344 0.33773437 -1.42054688 0.67546875 -2.15234375 1.0234375 C-3.07144531 1.46945313 -3.99054688 1.91546875 -4.9375 2.375 C-5.85402344 2.81585938 -6.77054687 3.25671875 -7.71484375 3.7109375 C-10.12903802 4.79199162 -10.12903802 4.79199162 -11 7 C-12.98 7 -14.96 7 -17 7 C-14.43471574 3.96098728 -11.57680059 2.75347776 -7.9375 1.25 C-6.87402344 0.80140625 -5.81054688 0.3528125 -4.71484375 -0.109375 C-2 -1 -2 -1 0 0 Z " fill="#EEDDAD" transform="translate(345,184)"/>
<path d="M0 0 C5.46864457 1.01591421 10.76390013 2.07091057 16 4 C16 4.33 16 4.66 16 5 C10.78020872 5.1799928 6.92737019 4.97094808 2 3 C2 2.34 2 1.68 2 1 C1.34 0.67 0.68 0.34 0 0 Z " fill="#BFAA7A" transform="translate(264,292)"/>
<path d="M0 0 C0.99 0.33 1.98 0.66 3 1 C-0.96 4.465 -0.96 4.465 -5 8 C-6.32 7.34 -7.64 6.68 -9 6 C-9 5.34 -9 4.68 -9 4 C-6.69 4 -4.38 4 -2 4 C-2 3.01 -2 2.02 -2 1 C-1.34 0.67 -0.68 0.34 0 0 Z " fill="#BE9D69" transform="translate(312,190)"/>
<path d="M0 0 C4.62 0 9.24 0 14 0 C14 0.99 14 1.98 14 3 C12.6078125 2.9071875 12.6078125 2.9071875 11.1875 2.8125 C8.01604897 2.69105736 8.01604897 2.69105736 6.125 4.5 C5.75375 4.995 5.3825 5.49 5 6 C5 4.68 5 3.36 5 2 C3.35 1.67 1.7 1.34 0 1 C0 0.67 0 0.34 0 0 Z " fill="#B99E5C" transform="translate(371,182)"/>
<path d="M0 0 C2.31 0.66 4.62 1.32 7 2 C7 2.66 7 3.32 7 4 C7.61875 4.0825 8.2375 4.165 8.875 4.25 C11 5 11 5 12.25 7.0625 C12.4975 7.701875 12.745 8.34125 13 9 C7.97290493 7.42903279 3.97133531 4.38006951 0 1 C0 0.67 0 0.34 0 0 Z " fill="#CBB88E" transform="translate(234,309)"/>
<path d="M0 0 C1.60080151 4.00200378 0.29279692 7.04556236 -1 11 C-1.66 11 -2.32 11 -3 11 C-3 8.03 -3 5.06 -3 2 C-2.01 2 -1.02 2 0 2 C0 1.34 0 0.68 0 0 Z " fill="#B48133" transform="translate(91,302)"/>
<path d="M0 0 C0.99 0.33 1.98 0.66 3 1 C3.33 2.65 3.66 4.3 4 6 C3.34 6 2.68 6 2 6 C1.67 7.65 1.34 9.3 1 11 C-1.30441554 7.54337669 -1.25860135 6.05142119 -1 2 C-0.67 1.34 -0.34 0.68 0 0 Z " fill="#C2A366" transform="translate(299,266)"/>
<path d="M0 0 C-0.33 1.32 -0.66 2.64 -1 4 C-4.81489674 5.46726798 -7.29011622 4.43336419 -11 3 C-10.67 2.34 -10.34 1.68 -10 1 C-6.63471927 0.46582846 -3.40372484 0 0 0 Z " fill="#B18D42" transform="translate(296,207)"/>
<path d="M0 0 C3.73487777 0.4979837 5.81237635 0.87491756 9 3 C8.34 3 7.68 3 7 3 C6.34 4.32 5.68 5.64 5 7 C4.67 6.01 4.34 5.02 4 4 C3.01 4 2.02 4 1 4 C0.67 2.68 0.34 1.36 0 0 Z " fill="#B78A37" transform="translate(325,128)"/>
<path d="M0 0 C-0.33 1.32 -0.66 2.64 -1 4 C-2.4800841 3.88637738 -3.95910074 3.75877092 -5.4375 3.625 C-6.26121094 3.55539063 -7.08492188 3.48578125 -7.93359375 3.4140625 C-8.61550781 3.27742187 -9.29742187 3.14078125 -10 3 C-10.33 2.34 -10.66 1.68 -11 1 C-7.26562152 0.12132271 -3.83225427 -0.08912219 0 0 Z " fill="#BE9445" transform="translate(293,128)"/>
<path d="M0 0 C0.99 0 1.98 0 3 0 C3 0.99 3 1.98 3 3 C3.99 3.33 4.98 3.66 6 4 C4.68 4 3.36 4 2 4 C2 4.99 2 5.98 2 7 C0.68 7 -0.64 7 -2 7 C-1.125 2.25 -1.125 2.25 0 0 Z " fill="#BB9859" transform="translate(173,367)"/>
<path d="M0 0 C0.33 0.66 0.66 1.32 1 2 C2.32 1.67 3.64 1.34 5 1 C5 1.66 5 2.32 5 3 C5.66 3 6.32 3 7 3 C7.33 2.34 7.66 1.68 8 1 C8.66 2.98 9.32 4.96 10 7 C6.06380262 6.43768609 3.20807554 5.38314183 0 3 C0 2.01 0 1.02 0 0 Z " fill="#D1B380" transform="translate(145,367)"/>
<path d="M0 0 C3.63 0.33 7.26 0.66 11 1 C11 1.66 11 2.32 11 3 C6.545 3.495 6.545 3.495 2 4 C2 3.34 2 2.68 2 2 C1.34 2 0.68 2 0 2 C0 1.34 0 0.68 0 0 Z " fill="#C1984F" transform="translate(382,162)"/>
<path d="M0 0 C1.62418745 -0.08090971 3.24951745 -0.13914995 4.875 -0.1875 C5.77992188 -0.22230469 6.68484375 -0.25710937 7.6171875 -0.29296875 C8.79667969 -0.14794922 8.79667969 -0.14794922 10 0 C12.29013653 3.4352048 12.17842973 4.985331 12 9 C11.34 9 10.68 9 10 9 C10 7.68 10 6.36 10 5 C5.05 3.02 5.05 3.02 0 1 C0 0.67 0 0.34 0 0 Z " fill="#D2B47B" transform="translate(249,156)"/>
<path d="M0 0 C5.94 0 11.88 0 18 0 C18 0.33 18 0.66 18 1 C12.48183434 2.99593226 7.75707845 3.45392613 2 2 C1.34 1.34 0.68 0.68 0 0 Z " fill="#B69558" transform="translate(256,236)"/>
<path d="M0 0 C0 0.66 0 1.32 0 2 C-3.67387495 2.85298376 -7.0447393 3.10789471 -10.8125 3.0625 C-12.27623047 3.04896484 -12.27623047 3.04896484 -13.76953125 3.03515625 C-14.87361328 3.01775391 -14.87361328 3.01775391 -16 3 C-16 2.67 -16 2.34 -16 2 C-10.61972975 0.80911014 -5.54708616 -0.2919519 0 0 Z " fill="#CEB177" transform="translate(256,135)"/>
<path d="M0 0 C0.66 0.66 1.32 1.32 2 2 C4.20250992 2.46006346 4.20250992 2.46006346 6.625 2.625 C7.44226563 2.69976562 8.25953125 2.77453125 9.1015625 2.8515625 C9.72804688 2.90054687 10.35453125 2.94953125 11 3 C9 5 9 5 6.1875 5.0625 C5.135625 5.041875 4.08375 5.02125 3 5 C1.32546201 5.291224 -0.34550895 5.61070799 -2 6 C-1.34 4.02 -0.68 2.04 0 0 Z " fill="#D2B076" transform="translate(264,368)"/>
<path d="M0 0 C2.25245881 2.68841859 3.88213958 4.64641875 5 8 C2.6875 7.8125 2.6875 7.8125 0 7 C-1.8125 4.4375 -1.8125 4.4375 -3 2 C-2.01 1.34 -1.02 0.68 0 0 Z " fill="#C1995B" transform="translate(255,366)"/>
<path d="M0 0 C0.66 0.33 1.32 0.66 2 1 C1.67 3.31 1.34 5.62 1 8 C0.01 8.33 -0.98 8.66 -2 9 C-2.125 5.625 -2.125 5.625 -2 2 C-1.34 1.34 -0.68 0.68 0 0 Z " fill="#CCAC72" transform="translate(258,360)"/>
<path d="M0 0 C1.98 0.66 3.96 1.32 6 2 C5.25 3.9375 5.25 3.9375 4 6 C1.875 6.75 1.875 6.75 0 7 C0 4.69 0 2.38 0 0 Z " fill="#BCA479" transform="translate(163,326)"/>
<path d="M0 0 C2.5 1 2.5 1 5 3 C5.46837899 5.79374292 5.23424505 8.14221036 5 11 C2.03947516 7.63576723 1.07710178 4.30840713 0 0 Z " fill="#C8B58A" transform="translate(300,277)"/>
<path d="M0 0 C1 2 1 2 0.44140625 4.1640625 C0.15136719 4.97617188 -0.13867188 5.78828125 -0.4375 6.625 C-0.72496094 7.44226563 -1.01242188 8.25953125 -1.30859375 9.1015625 C-1.53675781 9.72804687 -1.76492187 10.35453125 -2 11 C-2.99 11 -3.98 11 -5 11 C-4.46884894 6.48521602 -2.63379708 3.65333143 0 0 Z " fill="#EBD59E" transform="translate(215,213)"/>
<path d="M0 0 C0.66 0 1.32 0 2 0 C1.58578031 4.83256305 -0.46413986 6.82679218 -4 10 C-4 8.35 -4 6.7 -4 5 C-3.34 5 -2.68 5 -2 5 C-1.34 3.35 -0.68 1.7 0 0 Z " fill="#E7D295" transform="translate(337,218)"/>
<path d="M0 0 C-1.28965176 1.37562854 -2.62689293 2.70766393 -4 4 C-4.66 4 -5.32 4 -6 4 C-6 4.66 -6 5.32 -6 6 C-7.65 5.67 -9.3 5.34 -11 5 C-4.83050847 -1.61016949 -4.83050847 -1.61016949 0 0 Z " fill="#C09954" transform="translate(131,183)"/>
<path d="M0 0 C4.38889325 0.66498383 7.9811485 2.18757677 12 4 C10.375 5.125 10.375 5.125 8 6 C4.875 5.375 4.875 5.375 2 4 C0.625 1.875 0.625 1.875 0 0 Z " fill="#C39F61" transform="translate(379,150)"/>
<path d="M0 0 C1.65 0 3.3 0 5 0 C3.68 0.33 2.36 0.66 1 1 C1 2.32 1 3.64 1 5 C1.99 5.33 2.98 5.66 4 6 C3.01 6.33 2.02 6.66 1 7 C1 8.98 1 10.96 1 13 C-0.9078584 9.8250906 -1.1609041 7.89414789 -0.625 4.25 C-0.51414063 3.45078125 -0.40328125 2.6515625 -0.2890625 1.828125 C-0.19367188 1.22484375 -0.09828125 0.6215625 0 0 Z " fill="#E4C582" transform="translate(251,361)"/>
<path d="M0 0 C0.66 0.66 1.32 1.32 2 2 C1.9765625 4.1640625 1.9765625 4.1640625 1.625 6.625 C1.51414063 7.44226563 1.40328125 8.25953125 1.2890625 9.1015625 C1.19367188 9.72804688 1.09828125 10.35453125 1 11 C-2.00617269 7.99382731 -1.59585316 5.17618402 -2 1 C-1.34 0.67 -0.68 0.34 0 0 Z " fill="#BF9953" transform="translate(178,283)"/>
<path d="M0 0 C0.33 0.66 0.66 1.32 1 2 C1.99 1.67 2.98 1.34 4 1 C4 2.65 4 4.3 4 6 C4.99 6.33 5.98 6.66 7 7 C6.01 7.99 5.02 8.98 4 10 C0 3.375 0 3.375 0 0 Z " fill="#C49F5D" transform="translate(97,267)"/>
<path d="M0 0 C4.95 0 9.9 0 15 0 C15 0.33 15 0.66 15 1 C10.05 1.66 5.1 2.32 0 3 C0 2.01 0 1.02 0 0 Z " fill="#BE9644" transform="translate(303,266)"/>
<path d="M0 0 C0.33 0 0.66 0 1 0 C1.33 5.28 1.66 10.56 2 16 C1.34 16.33 0.68 16.66 0 17 C-0.89316269 11.06390334 -0.97040422 5.93024803 0 0 Z " fill="#D6B677" transform="translate(123,237)"/>
<path d="M0 0 C1.60495567 0.11442461 3.20898119 0.24194694 4.8125 0.375 C5.70582031 0.44460938 6.59914063 0.51421875 7.51953125 0.5859375 C10 1 10 1 13 3 C9.04 3 5.08 3 1 3 C0.67 2.01 0.34 1.02 0 0 Z " fill="#C3AD7F" transform="translate(270,323)"/>
<path d="M0 0 C1.32 0 2.64 0 4 0 C6.21538462 7.26153846 6.21538462 7.26153846 5.125 11 C4.75375 11.66 4.3825 12.32 4 13 C3.67 13 3.34 13 3 13 C3 10.03 3 7.06 3 4 C2.01 3.67 1.02 3.34 0 3 C0 2.01 0 1.02 0 0 Z " fill="#A7720B" transform="translate(176,281)"/>
<path d="M0 0 C0 0.99 0 1.98 0 3 C-4.29 2.67 -8.58 2.34 -13 2 C-13 1.67 -13 1.34 -13 1 C-8.61414671 0.29826347 -4.44209357 -0.10834375 0 0 Z " fill="#B6935E" transform="translate(170,276)"/>
<path d="M0 0 C0 0.99 0 1.98 0 3 C-2.64 3 -5.28 3 -8 3 C-8.33 4.32 -8.66 5.64 -9 7 C-9 5.02 -9 3.04 -9 1 C-2.25 0 -2.25 0 0 0 Z " fill="#C4A673" transform="translate(215,359)"/>
<path d="M0 0 C2.875 0.3125 2.875 0.3125 6 1 C6.66 1.99 7.32 2.98 8 4 C4.67465243 5.10844919 2.37817425 4.84454356 -1 4 C-0.01 3.67 0.98 3.34 2 3 C2 2.34 2 1.68 2 1 C1.34 0.67 0.68 0.34 0 0 Z " fill="#D0BD9B" transform="translate(305,358)"/>
<path d="M0 0 C4.04420651 1.77945087 7.46078487 4.39529673 11 7 C8 8 8 8 5.5 6.875 C2.78491695 4.83868771 1.53807831 2.99520512 0 0 Z " fill="#CFBF9A" transform="translate(315,314)"/>
<path d="M0 0 C4.455 0.99 4.455 0.99 9 2 C8.67 2.66 8.34 3.32 8 4 C5.36 4 2.72 4 0 4 C0 2.68 0 1.36 0 0 Z " fill="#C2AE7F" transform="translate(352,291)"/>
<path d="M0 0 C0.99 0.33 1.98 0.66 3 1 C3.25 7.625 3.25 7.625 1 11 C-0.17571451 7.32589215 -0.07366746 3.83070817 0 0 Z " fill="#C29E5B" transform="translate(174,273)"/>
<path d="M0 0 C-0.99 0.33 -1.98 0.66 -3 1 C-3 1.66 -3 2.32 -3 3 C-5.31 3.66 -7.62 4.32 -10 5 C-9.75 3.125 -9.75 3.125 -9 1 C-5.84213022 -1.36840234 -3.69270227 -1.02575063 0 0 Z " fill="#E4BC5B" transform="translate(353,209)"/>
<path d="M0 0 C6.625 0.75 6.625 0.75 10 3 C6.7 3.33 3.4 3.66 0 4 C0 2.68 0 1.36 0 0 Z " fill="#C9B38A" transform="translate(385,183)"/>
<path d="M0 0 C3.63 0.33 7.26 0.66 11 1 C9 3 9 3 5.5 3.1875 C2 3 2 3 0 2 C0 1.34 0 0.68 0 0 Z " fill="#C39E5E" transform="translate(170,176)"/>
<path d="M0 0 C0.66 0.66 1.32 1.32 2 2 C4.32275177 2.40047444 6.65739357 2.7397104 9 3 C9 3.33 9 3.66 9 4 C1.57142857 6.42857143 1.57142857 6.42857143 -2 5 C-1.34 3.35 -0.68 1.7 0 0 Z " fill="#D2AB72" transform="translate(367,368)"/>
<path d="M0 0 C0.33 0 0.66 0 1 0 C1.33 3.3 1.66 6.6 2 10 C1.34 10 0.68 10 0 10 C-0.66 10.66 -1.32 11.32 -2 12 C-2.33 10.35 -2.66 8.7 -3 7 C-2.34 6.67 -1.68 6.34 -1 6 C-0.34227572 2.97065509 -0.34227572 2.97065509 0 0 Z " fill="#DBBE89" transform="translate(91,306)"/>
<path d="M0 0 C0 0.66 0 1.32 0 2 C-5.625 3.125 -5.625 3.125 -9 2 C-6.98558063 -2.02883874 -3.72407517 -0.90585612 0 0 Z " fill="#B89560" transform="translate(115,298)"/>
<path d="M0 0 C1.32 0.66 2.64 1.32 4 2 C1.59078295 4.40921705 -0.94334509 5.53812156 -4 7 C-3.6875 4.625 -3.6875 4.625 -3 2 C-2.01 1.34 -1.02 0.68 0 0 Z " fill="#E0BB60" transform="translate(219,211)"/>
<path d="M0 0 C2.46800047 1.15173355 4.04783565 2.04783565 6 4 C5.34 4 4.68 4 4 4 C3.67 4.99 3.34 5.98 3 7 C1.68 5.35 0.36 3.7 -1 2 C-0.67 1.34 -0.34 0.68 0 0 Z " fill="#CAAE78" transform="translate(224,364)"/>
<path d="M0 0 C1 2 1 2 0.44140625 4.1640625 C0.15136719 4.97617188 -0.13867188 5.78828125 -0.4375 6.625 C-0.72496094 7.44226563 -1.01242188 8.25953125 -1.30859375 9.1015625 C-1.53675781 9.72804687 -1.76492187 10.35453125 -2 11 C-2.66 11 -3.32 11 -4 11 C-4.21952523 7.15830842 -3.72664863 4.45329726 -2 1 C-1.34 0.67 -0.68 0.34 0 0 Z " fill="#C3A56A" transform="translate(127,225)"/>
<path d="M0 0 C2.0625 0.4375 2.0625 0.4375 4 1 C3.01 1.33 2.02 1.66 1 2 C1 3.32 1 4.64 1 6 C-0.32 6.33 -1.64 6.66 -3 7 C-1.125 1.125 -1.125 1.125 0 0 Z " fill="#E3BB5D" transform="translate(243,218)"/>
<path d="M0 0 C0.99 0.33 1.98 0.66 3 1 C2.67 3.97 2.34 6.94 2 10 C1.34 9.34 0.68 8.68 0 8 C0.33 7.01 0.66 6.02 1 5 C0.01 5 -0.98 5 -2 5 C-2.33 4.01 -2.66 3.02 -3 2 C-2.34 2 -1.68 2 -1 2 C-0.67 1.34 -0.34 0.68 0 0 Z " fill="#BD8C30" transform="translate(402,212)"/>
<path d="M0 0 C0.99 0.33 1.98 0.66 3 1 C1.68 1.33 0.36 1.66 -1 2 C-0.67 1.34 -0.34 0.68 0 0 Z M-3 2 C-2.34 2.33 -1.68 2.66 -1 3 C-2.485 5.475 -2.485 5.475 -4 8 C-4.66 6.68 -5.32 5.36 -6 4 C-5.01 3.34 -4.02 2.68 -3 2 Z " fill="#E2BB54" transform="translate(346,184)"/>
<path d="M0 0 C2.76223278 2.76223278 2.57856291 5.20706617 3 9 C2.01 9.495 2.01 9.495 1 10 C-0.83691257 6.21812119 -1.15837626 4.05431692 0 0 Z " fill="#B97B09" transform="translate(181,289)"/>
<path d="M0 0 C0.33 0.99 0.66 1.98 1 3 C1.99 3.33 2.98 3.66 4 4 C4.33 5.65 4.66 7.3 5 9 C2.35247996 6.42215154 0.05567935 4.08351902 -2 1 C-1.34 0.67 -0.68 0.34 0 0 Z " fill="#CAA567" transform="translate(110,284)"/>
<path d="M0 0 C0.66 0.66 1.32 1.32 2 2 C0.74057614 3.19959375 -0.53295286 4.38439443 -1.8125 5.5625 C-2.87404297 6.55443359 -2.87404297 6.55443359 -3.95703125 7.56640625 C-4.63121094 8.03949219 -5.30539062 8.51257813 -6 9 C-6.99 8.67 -7.98 8.34 -9 8 C-8.21625 7.5875 -7.4325 7.175 -6.625 6.75 C-3.88492228 4.92328152 -3.26664653 3.92303045 -2 1 C-1.34 0.67 -0.68 0.34 0 0 Z " fill="#DEBB61" transform="translate(330,190)"/>
<path d="M0 0 C0.33 0.99 0.66 1.98 1 3 C-4.2734375 6.22265625 -4.2734375 6.22265625 -6 7 C-6.66 6.67 -7.32 6.34 -8 6 C-5.36 4.02 -2.72 2.04 0 0 Z " fill="#EADBAA" transform="translate(239,189)"/>
<path d="M0 0 C1.32 0 2.64 0 4 0 C4.33 1.98 4.66 3.96 5 6 C1.535 4.02 1.535 4.02 -2 2 C-1.34 1.34 -0.68 0.68 0 0 Z " fill="#BF8E41" transform="translate(291,181)"/>
<path d="M0 0 C3.55780196 0.60990891 6.6828589 1.5783681 10 3 C8.375 4.1875 8.375 4.1875 6 5 C2.75 3.625 2.75 3.625 0 2 C0 1.34 0 0.68 0 0 Z " fill="#C4A468" transform="translate(346,136)"/>
<path d="M0 0 C1.5 1.1875 1.5 1.1875 3 3 C3.1875 5.6875 3.1875 5.6875 3 8 C2.67 7.34 2.34 6.68 2 6 C1.01 6 0.02 6 -1 6 C-0.67 4.02 -0.34 2.04 0 0 Z " fill="#C39C5F" transform="translate(372,358)"/>
<path d="M0 0 C1.27875 -0.061875 2.5575 -0.12375 3.875 -0.1875 C4.95394531 -0.23970703 4.95394531 -0.23970703 6.0546875 -0.29296875 C6.69664062 -0.19628906 7.33859375 -0.09960938 8 0 C8.66 0.99 9.32 1.98 10 3 C9.01 3.33 8.02 3.66 7 4 C7 3.34 7 2.68 7 2 C5.02 2.33 3.04 2.66 1 3 C0.67 2.01 0.34 1.02 0 0 Z " fill="#B18E4D" transform="translate(246,315)"/>
<path d="M0 0 C0.99 0 1.98 0 3 0 C1.60667426 3.36720387 0.0210714 4.9859524 -3 7 C-3.33 6.34 -3.66 5.68 -4 5 C-2.1875 2.5 -2.1875 2.5 0 0 Z " fill="#C4AA7F" transform="translate(390,204)"/>
<path d="M0 0 C2.31 0.33 4.62 0.66 7 1 C7.33 1.99 7.66 2.98 8 4 C3.545 3.01 3.545 3.01 -1 2 C-0.67 1.34 -0.34 0.68 0 0 Z " fill="#C7A568" transform="translate(275,175)"/>
<path d="M0 0 C0.33 1.65 0.66 3.3 1 5 C-4.75 3.25 -4.75 3.25 -7 1 C-4.50935112 0.31292445 -2.62113708 0 0 0 Z " fill="#C09D5B" transform="translate(245,150)"/>
<path d="M0 0 C-0.66 1.32 -1.32 2.64 -2 4 C-2.66 4 -3.32 4 -4 4 C-4 3.34 -4 2.68 -4 2 C-5.65 2 -7.3 2 -9 2 C-9 1.67 -9 1.34 -9 1 C-3.375 -1.125 -3.375 -1.125 0 0 Z " fill="#D6BF9E" transform="translate(313,370)"/>
<path d="M0 0 C4.875 1.75 4.875 1.75 6 4 C4.02 4 2.04 4 0 4 C0 2.68 0 1.36 0 0 Z " fill="#C7AF7E" transform="translate(130,370)"/>
<path d="M0 0 C3.465 1.98 3.465 1.98 7 4 C6.67 4.99 6.34 5.98 6 7 C5.01 7 4.02 7 3 7 C0 2.77777778 0 2.77777778 0 0 Z " fill="#BA944D" transform="translate(135,268)"/>
<path d="M0 0 C0.33 0 0.66 0 1 0 C1.06058594 0.68707031 1.12117187 1.37414062 1.18359375 2.08203125 C1.26738281 2.98308594 1.35117188 3.88414062 1.4375 4.8125 C1.51871094 5.70582031 1.59992188 6.59914063 1.68359375 7.51953125 C1.93489767 10.12743559 1.93489767 10.12743559 3 13 C2.34 13.66 1.68 14.32 1 15 C-0.44207941 12.11584117 -0.09394887 9.58278472 -0.0625 6.375 C-0.05347656 5.18648438 -0.04445312 3.99796875 -0.03515625 2.7734375 C-0.02355469 1.85820312 -0.01195312 0.94296875 0 0 Z " fill="#B19A69" transform="translate(210,266)"/>
<path d="M0 0 C0.66 0 1.32 0 2 0 C2.33 2.31 2.66 4.62 3 7 C1.68 7 0.36 7 -1 7 C-0.67 4.69 -0.34 2.38 0 0 Z " fill="#A98539" transform="translate(124,253)"/>
<path d="M0 0 C0 2.64 0 5.28 0 8 C-0.99 8.33 -1.98 8.66 -3 9 C-3.6875 6.1875 -3.6875 6.1875 -4 3 C-1.8 0 -1.8 0 0 0 Z " fill="#DEC59D" transform="translate(405,219)"/>
<path d="M0 0 C0 3.25811062 -0.5522078 5.10441559 -2 8 C-2.99 8.33 -3.98 8.66 -5 9 C-3.7508258 5.54074837 -2.32472205 2.85306797 0 0 Z " fill="#EBD9A9" transform="translate(221,204)"/>
<path d="M0 0 C1.98 0 3.96 0 6 0 C1.375 4 1.375 4 -2 4 C-1.34 2.68 -0.68 1.36 0 0 Z " fill="#C4A368" transform="translate(317,185)"/>
<path d="M0 0 C1.32 0 2.64 0 4 0 C3.67 1.32 3.34 2.64 3 4 C1.35 4 -0.3 4 -2 4 C-1.34 2.68 -0.68 1.36 0 0 Z " fill="#AA7208" transform="translate(231,140)"/>
<path d="M0 0 C0.33 0.66 0.66 1.32 1 2 C1.66 2 2.32 2 3 2 C3.33 1.34 3.66 0.68 4 0 C4 1.98 4 3.96 4 6 C3.01 6 2.02 6 1 6 C0.67 5.01 0.34 4.02 0 3 C-0.66 2.67 -1.32 2.34 -2 2 C-1.34 2 -0.68 2 0 2 C0 1.34 0 0.68 0 0 Z " fill="#DBCCA2" transform="translate(393,366)"/>
<path d="M0 0 C2.31 0 4.62 0 7 0 C7 0.33 7 0.66 7 1 C5.35 1 3.7 1 2 1 C2.33 2.32 2.66 3.64 3 5 C2.01 5.33 1.02 5.66 0 6 C0 4.02 0 2.04 0 0 Z " fill="#BD8E48" transform="translate(318,360)"/>
<path d="M0 0 C2.475 0.495 2.475 0.495 5 1 C4.67 2.65 4.34 4.3 4 6 C1.7522025 3.94766315 0.9977758 2.99332739 0 0 Z " fill="#CAAD7E" transform="translate(349,359)"/>
<path d="M0 0 C2.31 0 4.62 0 7 0 C2.375 4 2.375 4 -1 4 C-0.67 2.68 -0.34 1.36 0 0 Z " fill="#EBD7A1" transform="translate(251,214)"/>
<path d="M0 0 C0.99 0.33 1.98 0.66 3 1 C2.01 2.485 2.01 2.485 1 4 C-2.125 4.1875 -2.125 4.1875 -5 4 C-2.6875 1.9375 -2.6875 1.9375 0 0 Z " fill="#E1BC69" transform="translate(257,210)"/>
<path d="M0 0 C0.33 0 0.66 0 1 0 C0.67 4.62 0.34 9.24 0 14 C-0.33 14 -0.66 14 -1 14 C-2.51708428 4.58997722 -2.51708428 4.58997722 0 0 Z " fill="#E2C99D" transform="translate(398,206)"/>
<path d="M0 0 C2.475 0.495 2.475 0.495 5 1 C4.34 2.65 3.68 4.3 3 6 C2.34 5.67 1.68 5.34 1 5 C0.375 2.4375 0.375 2.4375 0 0 Z " fill="#B08B3A" transform="translate(294,197)"/>
<path d="M0 0 C0.99 0.33 1.98 0.66 3 1 C1.71937515 2.7074998 0.38232443 4.37373596 -1 6 C-1.66 6 -2.32 6 -3 6 C-3 5.01 -3 4.02 -3 3 C-2.34 3 -1.68 3 -1 3 C-0.67 2.01 -0.34 1.02 0 0 Z " fill="#C5B18B" transform="translate(398,197)"/>
<path d="M0 0 C5.75 1.75 5.75 1.75 8 4 C2.25 4.125 2.25 4.125 0 3 C0 2.01 0 1.02 0 0 Z " fill="#DBC992" transform="translate(277,182)"/>
<path d="M0 0 C1.35432675 1.31200404 2.68733482 2.64631404 4 4 C4 4.33 4 4.66 4 5 C2.35 5 0.7 5 -1 5 C-1.33 4.01 -1.66 3.02 -2 2 C-1.34 1.34 -0.68 0.68 0 0 Z " fill="#C0A777" transform="translate(359,369)"/>
<path d="M0 0 C0 0.66 0 1.32 0 2 C0.99 2.33 1.98 2.66 3 3 C-0.375 3.125 -0.375 3.125 -4 3 C-4.66 2.34 -5.32 1.68 -6 1 C-4 0 -4 0 0 0 Z " fill="#C3AB7B" transform="translate(253,317)"/>
<path d="M0 0 C3.3 0.99 6.6 1.98 10 3 C10 3.33 10 3.66 10 4 C7.03 3.67 4.06 3.34 1 3 C0.67 2.01 0.34 1.02 0 0 Z " fill="#D1B47F" transform="translate(142,305)"/>
<path d="M0 0 C2.97 0.495 2.97 0.495 6 1 C6 2.65 6 4.3 6 6 C3.96166576 4.7260411 1.96147874 3.38938077 0 2 C0 1.34 0 0.68 0 0 Z " fill="#D1BF98" transform="translate(313,299)"/>
<path d="M0 0 C0.33 0 0.66 0 1 0 C1.04254356 1.99954746 1.04080783 4.00041636 1 6 C0 7 0 7 -3.5625 7.0625 C-4.696875 7.041875 -5.83125 7.02125 -7 7 C-4.8614515 4.8614515 -3.86724686 4.57344937 -1 4 C-0.67 2.68 -0.34 1.36 0 0 Z " fill="#A78F4F" transform="translate(375,257)"/>
<path d="M0 0 C0 0.99 0 1.98 0 3 C-3.62326739 4.2077558 -4.64146369 3.54311128 -8 2 C-8 1.67 -8 1.34 -8 1 C-5.36 0.67 -2.72 0.34 0 0 Z " fill="#D6C9AD" transform="translate(386,211)"/>
<path d="M0 0 C3.36591866 1.44253657 5.51047079 3.33264727 8 6 C5 6 5 6 3 5 C3 4.34 3 3.68 3 3 C2.34 3 1.68 3 1 3 C0.67 2.01 0.34 1.02 0 0 Z " fill="#CBAD6F" transform="translate(197,185)"/>
<path d="M0 0 C0.99 0.33 1.98 0.66 3 1 C3 1.99 3 2.98 3 4 C1.35 4.33 -0.3 4.66 -2 5 C-1.125 1.125 -1.125 1.125 0 0 Z " fill="#BC9B4F" transform="translate(283,186)"/>
<path d="M0 0 C3.25543229 0.34879632 4.01873107 1.02133261 6.25 3.5625 C6.8275 4.366875 7.405 5.17125 8 6 C5 6 5 6 3.61328125 4.6875 C2.40885417 3.125 1.20442708 1.5625 0 0 Z " fill="#D7BC89" transform="translate(296,187)"/>
<path d="M0 0 C2.625 0.375 2.625 0.375 5 1 C4.67 1.99 4.34 2.98 4 4 C2.02 3.34 0.04 2.68 -2 2 C-1.34 1.34 -0.68 0.68 0 0 Z " fill="#C4A04C" transform="translate(285,178)"/>
</svg>
